<svg version="1.1" xmlns="http://www.w3.org/2000/svg" viewBox="0 0 1742.3250906808032 1405.6667073567703" width="5226.975272042409" height="4217.000122070311">
  <!-- svg-source:excalidraw -->
  
  <defs>
    <style class="style-fonts">
      @font-face {
        font-family: "Virgil";
        src: url("https://excalidraw.com/Virgil.woff2");
      }
      @font-face {
        font-family: "Cascadia";
        src: url("https://excalidraw.com/Cascadia.woff2");
      }
    </style>
    
  </defs>
  <rect x="0" y="0" width="1742.3250906808032" height="1405.6667073567703" fill="#ffffff"></rect><g stroke-linecap="round" transform="translate(78.11079624720935 88.45087711394791) rotate(0 159.4285801478797 404.000004359654)"><path d="M32 0 M32 0 C90.76 -2.41, 149.51 -0.89, 286.86 0 M286.86 0 C309.18 1.66, 320.31 10.72, 318.86 32 M318.86 32 C320.9 292.02, 320.53 551.14, 318.86 776 M318.86 776 C319.39 798.13, 306.29 806.03, 286.86 808 M286.86 808 C232.21 805.1, 177.85 805.06, 32 808 M32 808 C11.84 808.04, -0.07 795.56, 0 776 M0 776 C-2.98 480.28, -2.24 184.82, 0 32 M0 32 C-0.51 12.41, 8.83 1.14, 32 0" stroke="#1e1e1e" stroke-width="1.5" fill="none" stroke-dasharray="8 9"></path></g><g stroke-linecap="round" transform="translate(114.12492261614068 134.91521132938448) rotate(0 122.80001831054693 90)"><path d="M32 0 M32 0 C73.62 1.1, 118.83 0.49, 213.6 0 M32 0 C94.78 0.2, 155.75 1.23, 213.6 0 M213.6 0 C234.69 0.34, 243.97 8.98, 245.6 32 M213.6 0 C234.5 -1.11, 246.61 11.52, 245.6 32 M245.6 32 C244.39 62.37, 247.85 92.22, 245.6 148 M245.6 32 C247.06 67.62, 246.56 101.57, 245.6 148 M245.6 148 C247.03 169.21, 236.66 178.76, 213.6 180 M245.6 148 C243.41 170.9, 235.74 177.8, 213.6 180 M213.6 180 C150.56 179.97, 85.79 179.51, 32 180 M213.6 180 C141.53 181.85, 71.21 180.51, 32 180 M32 180 C10.56 181.37, 0.79 168.33, 0 148 M32 180 C10.9 182.27, 0.37 170.07, 0 148 M0 148 C0.15 113.88, -2.02 74.24, 0 32 M0 148 C1.31 116.74, 1.74 86.87, 0 32 M0 32 C1.49 11.59, 9.15 1.79, 32 0 M0 32 C-1.69 8.58, 11.84 -2.06, 32 0" stroke="#1e1e1e" stroke-width="1" fill="none"></path></g><g stroke-linecap="round"><g transform="translate(115.72495923723443 182.1151930188376) rotate(0 121.06187890449539 -1.3365271326154584)"><path d="M0.3 -0.41 C40.76 -0.96, 202.65 -1.84, 243.13 -2.26 M-1 -1.68 C39.26 -1.49, 201.57 -0.62, 242.14 -0.65" stroke="#1e1e1e" stroke-width="1" fill="none"></path></g></g><mask></mask><g transform="translate(137.32493482317193 147.72483291141572) rotate(0 70.3125 9.599999999999994)"><text x="0" y="0" font-family="Cascadia, Segoe UI Emoji" font-size="16px" fill="#1e1e1e" text-anchor="start" style="white-space: pre;" direction="ltr" dominant-baseline="text-before-edge">CanonLitManager</text></g><g transform="translate(130.12492261614068 195.71519912235323) rotate(0 112.5 38.400000000000006)"><text x="0" y="0" font-family="Cascadia, Segoe UI Emoji" font-size="16px" fill="#1e1e1e" text-anchor="start" style="white-space: pre;" direction="ltr" dominant-baseline="text-before-edge">Load and manage</text><text x="0" y="19.2" font-family="Cascadia, Segoe UI Emoji" font-size="16px" fill="#1e1e1e" text-anchor="start" style="white-space: pre;" direction="ltr" dominant-baseline="text-before-edge">canonical literature</text><text x="0" y="38.4" font-family="Cascadia, Segoe UI Emoji" font-size="16px" fill="#1e1e1e" text-anchor="start" style="white-space: pre;" direction="ltr" dominant-baseline="text-before-edge">documents.</text><text x="0" y="57.599999999999994" font-family="Cascadia, Segoe UI Emoji" font-size="16px" fill="#1e1e1e" text-anchor="start" style="white-space: pre;" direction="ltr" dominant-baseline="text-before-edge">Supports indexed lookup.</text></g><g stroke-linecap="round" transform="translate(114.52501569475396 370.31515944950166) rotate(0 122.80001831054693 90)"><path d="M32 0 M32 0 C69.01 -0.33, 107.42 -0.22, 213.6 0 M32 0 C93.5 -0.96, 154.41 0.27, 213.6 0 M213.6 0 C236.41 -1.99, 246.53 9.7, 245.6 32 M213.6 0 C234.95 0.59, 244.37 11.29, 245.6 32 M245.6 32 C246.84 58.24, 247.12 84.59, 245.6 148 M245.6 32 C245.07 64.24, 245.39 95.91, 245.6 148 M245.6 148 C245.29 167.57, 233.88 178.54, 213.6 180 M245.6 148 C245.85 169.12, 233.82 178.09, 213.6 180 M213.6 180 C147.39 181.01, 84.75 179.45, 32 180 M213.6 180 C166.82 179.28, 121.67 177.99, 32 180 M32 180 C9.36 181.23, 0.31 170.59, 0 148 M32 180 C10.7 178.74, -1.71 169.17, 0 148 M0 148 C0.73 125.88, 0.97 99.64, 0 32 M0 148 C0.81 105.87, 0.55 64.06, 0 32 M0 32 C-1.09 8.67, 12.45 1.16, 32 0 M0 32 C-1.77 10.44, 9.02 -2.07, 32 0" stroke="#1e1e1e" stroke-width="1" fill="none"></path></g><g stroke-linecap="round"><g transform="translate(116.12505231584771 417.5151411389548) rotate(0 121.27402286387044 -1.5652581395860636)"><path d="M0.29 0.71 C40.8 0.4, 203.12 -1.43, 243.56 -1.95 M-1.01 0.04 C39.32 -0.64, 202.3 -3.65, 242.8 -3.84" stroke="#1e1e1e" stroke-width="1" fill="none"></path></g></g><mask></mask><g transform="translate(137.7250279017852 383.1247810315329) rotate(0 51.5625 9.599999999999994)"><text x="0" y="0" font-family="Cascadia, Segoe UI Emoji" font-size="16px" fill="#1e1e1e" text-anchor="start" style="white-space: pre;" direction="ltr" dominant-baseline="text-before-edge">CanonLitDoc</text></g><g transform="translate(130.52501569475396 431.1151472424704) rotate(0 103.125 28.80000000000001)"><text x="0" y="0" font-family="Cascadia, Segoe UI Emoji" font-size="16px" fill="#1e1e1e" text-anchor="start" style="white-space: pre;" direction="ltr" dominant-baseline="text-before-edge">A canonical literature</text><text x="0" y="19.2" font-family="Cascadia, Segoe UI Emoji" font-size="16px" fill="#1e1e1e" text-anchor="start" style="white-space: pre;" direction="ltr" dominant-baseline="text-before-edge">document.</text><text x="0" y="38.4" font-family="Cascadia, Segoe UI Emoji" font-size="16px" fill="#1e1e1e" text-anchor="start" style="white-space: pre;" direction="ltr" dominant-baseline="text-before-edge">Lookup for sections.</text></g><g stroke-linecap="round" transform="translate(110.63935961042091 603.9724448673314) rotate(0 126.80003356933594 118.49998474121094)"><path d="M32 0 M32 0 C84.01 -0.27, 137.75 0.96, 221.6 0 M32 0 C90.8 -0.22, 149.38 -0.07, 221.6 0 M221.6 0 C243.15 -0.19, 252.63 9.01, 253.6 32 M221.6 0 C244.19 -0.18, 254.26 8.54, 253.6 32 M253.6 32 C252.61 89.53, 251.61 143.47, 253.6 205 M253.6 32 C254.51 101.73, 255.32 170.87, 253.6 205 M253.6 205 C253.63 225.24, 241.44 236.86, 221.6 237 M253.6 205 C251.34 224.94, 241.56 237.03, 221.6 237 M221.6 237 C153.89 233.68, 84.11 235.01, 32 237 M221.6 237 C167.72 235.91, 115.81 237.49, 32 237 M32 237 C9.13 236.81, -1.43 224.53, 0 205 M32 237 C9.25 236.02, 1.27 224.83, 0 205 M0 205 C3.04 140.24, 1.2 80.62, 0 32 M0 205 C1.22 143.99, 0.54 81.83, 0 32 M0 32 C-0.82 9.63, 11.04 -1.41, 32 0 M0 32 C2.19 8.38, 12.35 0.17, 32 0" stroke="#1e1e1e" stroke-width="1" fill="none"></path></g><g stroke-linecap="round"><g transform="translate(112.23939623151466 651.1724265567846) rotate(0 125.33540834225715 -1.3937256637960331)"><path d="M-0.63 0.48 C41.33 -0.02, 209.25 -2.55, 251.31 -3.27 M1.23 -0.31 C43.1 -0.57, 208.76 -1.26, 250.41 -1.66" stroke="#1e1e1e" stroke-width="1" fill="none"></path></g></g><mask></mask><g transform="translate(133.83937181745216 616.7820664493627) rotate(0 70.3125 9.600000000000023)"><text x="0" y="0" font-family="Cascadia, Segoe UI Emoji" font-size="16px" fill="#1e1e1e" text-anchor="start" style="white-space: pre;" direction="ltr" dominant-baseline="text-before-edge">CanonLitSection</text></g><g transform="translate(126.63935961042091 664.7724326603002) rotate(0 107.8125 76.80000000000001)"><text x="0" y="0" font-family="Cascadia, Segoe UI Emoji" font-size="16px" fill="#1e1e1e" text-anchor="start" style="white-space: pre;" direction="ltr" dominant-baseline="text-before-edge">A dual-language object.</text><text x="0" y="19.2" font-family="Cascadia, Segoe UI Emoji" font-size="16px" fill="#1e1e1e" text-anchor="start" style="white-space: pre;" direction="ltr" dominant-baseline="text-before-edge">Contains the section</text><text x="0" y="38.4" font-family="Cascadia, Segoe UI Emoji" font-size="16px" fill="#1e1e1e" text-anchor="start" style="white-space: pre;" direction="ltr" dominant-baseline="text-before-edge">both in Latin and</text><text x="0" y="57.599999999999994" font-family="Cascadia, Segoe UI Emoji" font-size="16px" fill="#1e1e1e" text-anchor="start" style="white-space: pre;" direction="ltr" dominant-baseline="text-before-edge">English, and their</text><text x="0" y="76.8" font-family="Cascadia, Segoe UI Emoji" font-size="16px" fill="#1e1e1e" text-anchor="start" style="white-space: pre;" direction="ltr" dominant-baseline="text-before-edge">properties.</text><text x="0" y="96" font-family="Cascadia, Segoe UI Emoji" font-size="16px" fill="#1e1e1e" text-anchor="start" style="white-space: pre;" direction="ltr" dominant-baseline="text-before-edge">Has a section number,</text><text x="0" y="115.19999999999999" font-family="Cascadia, Segoe UI Emoji" font-size="16px" fill="#1e1e1e" text-anchor="start" style="white-space: pre;" direction="ltr" dominant-baseline="text-before-edge">which is an identifier.</text><text x="0" y="134.4" font-family="Cascadia, Segoe UI Emoji" font-size="16px" fill="#1e1e1e" text-anchor="start" style="white-space: pre;" direction="ltr" dominant-baseline="text-before-edge">For example: "2.5.34"</text></g><g transform="translate(185.53934151785677 61.76520642477371) rotate(0 46.875 12)"><text x="0" y="0" font-family="Cascadia, Segoe UI Emoji" font-size="20px" fill="#1e1e1e" text-anchor="start" style="white-space: pre;" direction="ltr" dominant-baseline="text-before-edge">CanonLit</text></g><g stroke-linecap="round"><g transform="translate(233.53935023716474 322.4508596753318) rotate(0 0.5323310124554723 21.209911801894833)"><path d="M-0.75 0.53 C-0.43 7.27, 1.19 34.59, 1.81 41.52 M1.06 -0.24 C1.19 7.16, 0.36 35.39, 0.61 42.66" stroke="#1e1e1e" stroke-width="4" fill="none"></path></g><g transform="translate(233.53935023716474 322.4508596753318) rotate(0 0.5323310124554723 21.209911801894833)"><path d="M-5.73 21.96 C-5.61 29.74, -2.53 34.07, -1.34 44.45 M-6.07 23.2 C-3.73 29.64, -3.09 35.3, 1.59 41.77" stroke="#1e1e1e" stroke-width="4" fill="none"></path></g><g transform="translate(233.53935023716474 322.4508596753318) rotate(0 0.5323310124554723 21.209911801894833)"><path d="M8.76 21.98 C4.67 29.66, 3.55 33.99, -1.34 44.45 M8.41 23.21 C6.37 29.69, 2.62 35.34, 1.59 41.77" stroke="#1e1e1e" stroke-width="4" fill="none"></path></g></g><mask></mask><g stroke-linecap="round"><g transform="translate(227.82506452287896 554.450894552564) rotate(0 0.6292360428720656 22.969163730505045)"><path d="M-0.62 0.81 C-0.35 8.6, 1.69 38.28, 1.88 45.75 M1.25 0.19 C1.42 7.76, 1.62 36.97, 1.32 44.24" stroke="#1e1e1e" stroke-width="4" fill="none"></path></g><g transform="translate(227.82506452287896 554.450894552564) rotate(0 0.6292360428720656 22.969163730505045)"><path d="M-4.68 24.42 C-1.9 28.94, 0.22 36.83, 1.11 43.26 M-6.83 23.2 C-3.94 29.33, -1.8 33.94, 0.33 44.34" stroke="#1e1e1e" stroke-width="4" fill="none"></path></g><g transform="translate(227.82506452287896 554.450894552564) rotate(0 0.6292360428720656 22.969163730505045)"><path d="M10.57 24.62 C8.49 29, 5.75 36.82, 1.11 43.26 M8.42 23.4 C7.17 29.54, 5.17 34.1, 0.33 44.34" stroke="#1e1e1e" stroke-width="4" fill="none"></path></g></g><mask></mask><g stroke-linecap="round" transform="translate(924.9681832449767 85.65076725066655) rotate(0 161.61907377697173 517.7142551967074)"><path d="M32 0 M32 0 C123.5 -0.31, 216.28 -0.02, 291.24 0 M291.24 0 C314.12 1.63, 322.68 12.26, 323.24 32 M323.24 32 C321.76 315.56, 321.45 601.04, 323.24 1003.43 M323.24 1003.43 C322.21 1025.36, 311.26 1035.66, 291.24 1035.43 M291.24 1035.43 C215.54 1036.2, 140.06 1035.18, 32 1035.43 M32 1035.43 C9.08 1036.57, 0.07 1023.31, 0 1003.43 M0 1003.43 C0.62 636.77, 0.74 270.22, 0 32 M0 32 C1.02 10.91, 11.11 -0.47, 32 0" stroke="#1e1e1e" stroke-width="1.5" fill="none" stroke-dasharray="8 9"></path></g><g stroke-linecap="round" transform="translate(964.3822838919493 124.57229293338833) rotate(0 122.80001831054688 89.99999999999997)"><path d="M32 0 M32 0 C91.92 0.84, 150.01 2.32, 213.6 0 M32 0 C77.31 1.78, 121.85 1.03, 213.6 0 M213.6 0 C235.83 -0.83, 245.14 9.61, 245.6 32 M213.6 0 C235.86 0.2, 245.85 11.59, 245.6 32 M245.6 32 C244.37 61.29, 245.64 93.31, 245.6 148 M245.6 32 C244.56 61.48, 243.71 90.63, 245.6 148 M245.6 148 C245.48 168.26, 234.05 181.43, 213.6 180 M245.6 148 C243.43 168.51, 237.22 182.08, 213.6 180 M213.6 180 C164.87 182.37, 115.54 180.02, 32 180 M213.6 180 C172.03 177.62, 131.68 178.85, 32 180 M32 180 C10.93 178.44, 1.23 167.5, 0 148 M32 180 C11.12 179.42, -0.43 168.14, 0 148 M0 148 C2.42 114.91, -0.9 79.31, 0 32 M0 148 C0.62 122.05, 0.39 95.64, 0 32 M0 32 C-1.21 9.71, 12.66 -1.66, 32 0 M0 32 C0.17 12.78, 11.92 -1.07, 32 0" stroke="#1e1e1e" stroke-width="1" fill="none"></path></g><g stroke-linecap="round"><g transform="translate(965.9823205130431 171.77227462284145) rotate(0 121.4626251515001 -1.5159316893666954)"><path d="M-0.58 0.01 C40.2 -0.59, 202.82 -2.5, 243.51 -3.04 M1.32 -1.03 C42.07 -1.53, 202.45 -1.62, 242.72 -1.84" stroke="#1e1e1e" stroke-width="1" fill="none"></path></g></g><mask></mask><g transform="translate(987.5822960989806 137.38191451541957) rotate(0 79.6875 9.600000000000001)"><text x="0" y="0" font-family="Cascadia, Segoe UI Emoji" font-size="16px" fill="#1e1e1e" text-anchor="start" style="white-space: pre;" direction="ltr" dominant-baseline="text-before-edge">LemmatizedManager</text></g><g transform="translate(980.3822838919493 185.37228072635708) rotate(0 112.5 38.400000000000006)"><text x="0" y="0" font-family="Cascadia, Segoe UI Emoji" font-size="16px" fill="#1e1e1e" text-anchor="start" style="white-space: pre;" direction="ltr" dominant-baseline="text-before-edge">Load and manage</text><text x="0" y="19.2" font-family="Cascadia, Segoe UI Emoji" font-size="16px" fill="#1e1e1e" text-anchor="start" style="white-space: pre;" direction="ltr" dominant-baseline="text-before-edge">lemmatized Latin</text><text x="0" y="38.4" font-family="Cascadia, Segoe UI Emoji" font-size="16px" fill="#1e1e1e" text-anchor="start" style="white-space: pre;" direction="ltr" dominant-baseline="text-before-edge">documents.</text><text x="0" y="57.599999999999994" font-family="Cascadia, Segoe UI Emoji" font-size="16px" fill="#1e1e1e" text-anchor="start" style="white-space: pre;" direction="ltr" dominant-baseline="text-before-edge">Supports indexed lookup.</text></g><g stroke-linecap="round" transform="translate(964.5966175624292 363.5079400804306) rotate(0 122.80001831054688 90)"><path d="M32 0 M32 0 C95.35 -1.16, 159.02 -1.69, 213.6 0 M32 0 C85.53 -0.05, 140.1 -0.65, 213.6 0 M213.6 0 C234.81 -0.36, 246.23 11.27, 245.6 32 M213.6 0 C234.26 -1.01, 243.59 11.92, 245.6 32 M245.6 32 C243.32 56.76, 243.83 79.6, 245.6 148 M245.6 32 C246.63 69.79, 246.01 110.1, 245.6 148 M245.6 148 C247 169.65, 236.09 180.65, 213.6 180 M245.6 148 C243.72 167.69, 236.97 181.97, 213.6 180 M213.6 180 C172.97 177.22, 130.07 179.57, 32 180 M213.6 180 C142.97 180.94, 72.5 181.67, 32 180 M32 180 C8.8 181.81, 1.72 167.88, 0 148 M32 180 C10.28 177.95, -0.8 168.68, 0 148 M0 148 C1.66 114.36, -0.77 81.2, 0 32 M0 148 C-1.12 122.27, 0.08 95.53, 0 32 M0 32 C-0.98 11.58, 10.18 1.1, 32 0 M0 32 C0.82 12.95, 8.78 0.35, 32 0" stroke="#1e1e1e" stroke-width="1" fill="none"></path></g><g stroke-linecap="round"><g transform="translate(966.1966541835229 410.70792176988374) rotate(0 122.19203505567282 -0.3244237545784472)"><path d="M-0.41 -0.53 C39.95 -0.88, 201.95 -2.23, 242.47 -2.46 M1.57 1.81 C42.29 1.69, 204.78 0.01, 244.8 -0.95" stroke="#1e1e1e" stroke-width="1" fill="none"></path></g></g><mask></mask><g transform="translate(987.7966297694604 376.31756166246186) rotate(0 60.9375 9.599999999999994)"><text x="0" y="0" font-family="Cascadia, Segoe UI Emoji" font-size="16px" fill="#1e1e1e" text-anchor="start" style="white-space: pre;" direction="ltr" dominant-baseline="text-before-edge">LemmatizedDoc</text></g><g transform="translate(980.5966175624292 424.30792787339936) rotate(0 93.75 28.80000000000001)"><text x="0" y="0" font-family="Cascadia, Segoe UI Emoji" font-size="16px" fill="#1e1e1e" text-anchor="start" style="white-space: pre;" direction="ltr" dominant-baseline="text-before-edge">A lemmatized Latin</text><text x="0" y="19.2" font-family="Cascadia, Segoe UI Emoji" font-size="16px" fill="#1e1e1e" text-anchor="start" style="white-space: pre;" direction="ltr" dominant-baseline="text-before-edge">document.</text><text x="0" y="38.4" font-family="Cascadia, Segoe UI Emoji" font-size="16px" fill="#1e1e1e" text-anchor="start" style="white-space: pre;" direction="ltr" dominant-baseline="text-before-edge">Lookup for sections.</text></g><g stroke-linecap="round" transform="translate(960.5250494820723 605.6509661598809) rotate(0 129.29999542236328 90.49999237060547)"><path d="M32 0 M32 0 C92.83 0.95, 151.82 -0.53, 226.6 0 M32 0 C72.82 2.57, 113.87 2.08, 226.6 0 M226.6 0 C246.78 -0.74, 259.28 12.65, 258.6 32 M226.6 0 C249.41 -0.28, 256.44 8.95, 258.6 32 M258.6 32 C260.58 75.39, 257.78 116.04, 258.6 149 M258.6 32 C259.53 76.98, 260.37 121.99, 258.6 149 M258.6 149 C259.38 170.79, 249.74 179.43, 226.6 181 M258.6 149 C260.49 170.81, 246.66 182.35, 226.6 181 M226.6 181 C166.38 181.3, 102.37 180.98, 32 181 M226.6 181 C175.24 180.4, 124.39 181.21, 32 181 M32 181 C10.16 182.68, -1.43 170.67, 0 149 M32 181 C9.49 178.88, 1.86 170.97, 0 149 M0 149 C0.09 108.01, 1.29 66.79, 0 32 M0 149 C-0.16 123.04, 0.35 98.85, 0 32 M0 32 C1.9 9.01, 10.97 0.92, 32 0 M0 32 C0.07 12.91, 10.2 1.48, 32 0" stroke="#1e1e1e" stroke-width="1" fill="none"></path></g><g stroke-linecap="round"><g transform="translate(962.125086103166 652.850947849334) rotate(0 125.88107706258074 -1.8993721004575264)"><path d="M0.36 -0.35 C42.51 -0.99, 210.42 -2.92, 252.67 -3.45 M-0.91 -1.58 C41.05 -2.14, 209.06 -2.27, 251.45 -2.46" stroke="#1e1e1e" stroke-width="1" fill="none"></path></g></g><mask></mask><g transform="translate(983.7250616891035 618.4605877419121) rotate(0 79.6875 9.600000000000023)"><text x="0" y="0" font-family="Cascadia, Segoe UI Emoji" font-size="16px" fill="#1e1e1e" text-anchor="start" style="white-space: pre;" direction="ltr" dominant-baseline="text-before-edge">LemmatizedSection</text></g><g transform="translate(976.5250494820723 666.4509539528497) rotate(0 112.5 38.39999999999998)"><text x="0" y="0" font-family="Cascadia, Segoe UI Emoji" font-size="16px" fill="#1e1e1e" text-anchor="start" style="white-space: pre;" direction="ltr" dominant-baseline="text-before-edge">A collection of lemma-</text><text x="0" y="19.2" font-family="Cascadia, Segoe UI Emoji" font-size="16px" fill="#1e1e1e" text-anchor="start" style="white-space: pre;" direction="ltr" dominant-baseline="text-before-edge">tized tokens. It has the</text><text x="0" y="38.4" font-family="Cascadia, Segoe UI Emoji" font-size="16px" fill="#1e1e1e" text-anchor="start" style="white-space: pre;" direction="ltr" dominant-baseline="text-before-edge">same section number as</text><text x="0" y="57.599999999999994" font-family="Cascadia, Segoe UI Emoji" font-size="16px" fill="#1e1e1e" text-anchor="start" style="white-space: pre;" direction="ltr" dominant-baseline="text-before-edge">CanonLitSection.</text></g><g stroke-linecap="round" transform="translate(965.2037756783614 861.8292362273687) rotate(0 122.80001831054688 90)"><path d="M32 0 M32 0 C100.88 -1.9, 166.01 -1.4, 213.6 0 M32 0 C101.99 -0.64, 171.35 -0.13, 213.6 0 M213.6 0 C233.38 -1.1, 245.65 9.35, 245.6 32 M213.6 0 C233.86 1.08, 247.26 9.06, 245.6 32 M245.6 32 C247.68 55.76, 246.17 78.7, 245.6 148 M245.6 32 C243.84 66.56, 243.71 101.01, 245.6 148 M245.6 148 C246.36 171.05, 236.01 181.27, 213.6 180 M245.6 148 C245.06 168.17, 233.57 179.53, 213.6 180 M213.6 180 C177.67 181.23, 140.26 181.34, 32 180 M213.6 180 C147.43 180.62, 81.7 180.75, 32 180 M32 180 C11.93 178.41, 1.56 170.64, 0 148 M32 180 C10.91 181.63, 0.57 169.8, 0 148 M0 148 C-0.2 116.14, -2.45 84.41, 0 32 M0 148 C-1.74 117.48, -1.3 86.75, 0 32 M0 32 C-0.28 10.6, 10.17 1.8, 32 0 M0 32 C1.51 8.73, 9.3 -0.8, 32 0" stroke="#1e1e1e" stroke-width="1" fill="none"></path></g><g stroke-linecap="round"><g transform="translate(966.8038122994551 909.0292179168218) rotate(0 122.02113592675892 -0.8319651645981025)"><path d="M-0.92 -0.83 C39.47 -1.18, 202.08 -1.19, 242.58 -1.41 M0.79 1.35 C41.56 0.62, 204.37 -2.67, 244.96 -3.02" stroke="#1e1e1e" stroke-width="1" fill="none"></path></g></g><mask></mask><g transform="translate(988.4037878853926 874.6388578093997) rotate(0 70.3125 9.600000000000023)"><text x="0" y="0" font-family="Cascadia, Segoe UI Emoji" font-size="16px" fill="#1e1e1e" text-anchor="start" style="white-space: pre;" direction="ltr" dominant-baseline="text-before-edge">LemmatizedToken</text></g><g transform="translate(981.2037756783614 922.6292240203375) rotate(0 107.8125 38.39999999999998)"><text x="0" y="0" font-family="Cascadia, Segoe UI Emoji" font-size="16px" fill="#1e1e1e" text-anchor="start" style="white-space: pre;" direction="ltr" dominant-baseline="text-before-edge">A token (mostly a word)</text><text x="0" y="19.2" font-family="Cascadia, Segoe UI Emoji" font-size="16px" fill="#1e1e1e" text-anchor="start" style="white-space: pre;" direction="ltr" dominant-baseline="text-before-edge">in the lemmatized text</text><text x="0" y="38.4" font-family="Cascadia, Segoe UI Emoji" font-size="16px" fill="#1e1e1e" text-anchor="start" style="white-space: pre;" direction="ltr" dominant-baseline="text-before-edge">that is fully analysed:</text><text x="0" y="57.599999999999994" font-family="Cascadia, Segoe UI Emoji" font-size="16px" fill="#1e1e1e" text-anchor="start" style="white-space: pre;" direction="ltr" dominant-baseline="text-before-edge">case, voice, etc.</text></g><g transform="translate(1029.807312011718 59.36507476322237) rotate(0 58.59375 12)"><text x="0" y="0" font-family="Cascadia, Segoe UI Emoji" font-size="20px" fill="#1e1e1e" text-anchor="start" style="white-space: pre;" direction="ltr" dominant-baseline="text-before-edge">Lemmatized</text></g><g stroke-linecap="round"><g transform="translate(1081.539489746093 308.5079319060794) rotate(0 -0.7693978643616219 24.114994509218775)"><path d="M0.11 0.51 C-0.27 8.79, -1.52 40.74, -1.92 48.49 M-1.29 -0.26 C-1.31 7.76, 0.17 38.61, 0.38 46.63" stroke="#1e1e1e" stroke-width="4" fill="none"></path></g><g transform="translate(1081.539489746093 308.5079319060794) rotate(0 -0.7693978643616219 24.114994509218775)"><path d="M-7.82 23.1 C-5.08 29.8, -4.52 40.89, -0.66 46 M-8.99 24.43 C-4.59 33.06, -2.65 41.21, 0.43 47.52" stroke="#1e1e1e" stroke-width="4" fill="none"></path></g><g transform="translate(1081.539489746093 308.5079319060794) rotate(0 -0.7693978643616219 24.114994509218775)"><path d="M8.59 22.48 C5.9 29.4, 1.03 40.69, -0.66 46 M7.42 23.81 C5.56 32.83, 1.25 41.21, 0.43 47.52" stroke="#1e1e1e" stroke-width="4" fill="none"></path></g></g><mask></mask><g stroke-linecap="round"><g transform="translate(1081.539489746093 548.5079319060794) rotate(0 0.9556160863488685 26.890996221849434)"><path d="M-0.66 -0.15 C-0.3 8.93, 2.06 45.69, 2.58 55.05 M1.19 -1.27 C1.38 7.37, 1.69 43.77, 1.78 53.04" stroke="#1e1e1e" stroke-width="4" fill="none"></path></g><g transform="translate(1081.539489746093 548.5079319060794) rotate(0 0.9556160863488685 26.890996221849434)"><path d="M-8.09 27.81 C-4.19 36.14, 0.65 43.62, 3.33 52.32 M-8.57 28.28 C-4.57 37.43, -1.13 48.32, 2.52 53.62" stroke="#1e1e1e" stroke-width="4" fill="none"></path></g><g transform="translate(1081.539489746093 548.5079319060794) rotate(0 0.9556160863488685 26.890996221849434)"><path d="M10.69 27.64 C8.34 35.93, 6.92 43.46, 3.33 52.32 M10.21 28.11 C6.76 37.16, 2.74 48.11, 2.52 53.62" stroke="#1e1e1e" stroke-width="4" fill="none"></path></g></g><mask></mask><g stroke-linecap="round"><g transform="translate(1079.2538103376107 787.9364684574186) rotate(0 0.8377551492625344 35.00049646653764)"><path d="M-0.74 -0.06 C-0.72 11.38, -0.07 58.1, 0.18 69.64 M1.07 -1.14 C1.45 10.41, 2.6 59.25, 2.39 71.14" stroke="#1e1e1e" stroke-width="4" fill="none"></path></g><g transform="translate(1079.2538103376107 787.9364684574186) rotate(0 0.8377551492625344 35.00049646653764)"><path d="M-8.16 41.42 C-4.73 51.1, -2.27 62.11, 3.81 71.04 M-8.63 42.14 C-4.29 52.87, -1.56 61.85, 3.18 70.33" stroke="#1e1e1e" stroke-width="4" fill="none"></path></g><g transform="translate(1079.2538103376107 787.9364684574186) rotate(0 0.8377551492625344 35.00049646653764)"><path d="M12.36 41.29 C9.49 50.89, 5.65 61.93, 3.81 71.04 M11.89 42 C8.99 52.91, 4.48 61.94, 3.18 70.33" stroke="#1e1e1e" stroke-width="4" fill="none"></path></g></g><mask></mask><g stroke-linecap="round" transform="translate(457.31095668247724 89.07947818816672) rotate(0 197.14285714285705 250.28569902692524)"><path d="M32 0 M32 0 C162.79 1.34, 291.01 -0.46, 362.29 0 M362.29 0 C382.03 -0.19, 393.3 12.56, 394.29 32 M394.29 32 C395.58 198.44, 396.26 364.48, 394.29 468.57 M394.29 468.57 C394.57 488.08, 383.15 500.24, 362.29 500.57 M362.29 500.57 C262.94 502.31, 166.27 502.06, 32 500.57 M32 500.57 C12.2 498.58, -0.75 489.37, 0 468.57 M0 468.57 C0.77 326.16, 0.58 182.49, 0 32 M0 32 C1.48 12.65, 9.27 1.94, 32 0" stroke="#1e1e1e" stroke-width="1.5" fill="none" stroke-dasharray="8 9"></path></g><g stroke-linecap="round" transform="translate(526.7247761317657 365.68673276144375) rotate(0 125.30001831054693 91.83224728379926)"><path d="M32 0 M32 0 C94.13 2.68, 156.19 0.45, 218.6 0 M32 0 C71.13 -1.06, 109.44 -0.89, 218.6 0 M218.6 0 C238.3 -1.43, 252.37 12.38, 250.6 32 M218.6 0 C238.37 -0.17, 249.48 12.42, 250.6 32 M250.6 32 C252.87 54.96, 252.71 81.47, 250.6 151.66 M250.6 32 C250.37 62.16, 252.17 89.79, 250.6 151.66 M250.6 151.66 C250.26 171.22, 239.23 183.09, 218.6 183.66 M250.6 151.66 C250.49 173.52, 238.76 185.87, 218.6 183.66 M218.6 183.66 C155.61 185.57, 94.45 183.39, 32 183.66 M218.6 183.66 C147.07 185.23, 76.28 185.33, 32 183.66 M32 183.66 C11.38 185.65, -1.64 173.3, 0 151.66 M32 183.66 C10.13 183.71, -1.12 174.23, 0 151.66 M0 151.66 C-0.83 107.06, -1.07 62.58, 0 32 M0 151.66 C-1.6 117.77, -1.58 84.49, 0 32 M0 32 C0.87 10.59, 12.39 0.23, 32 0 M0 32 C1.95 12.26, 11.41 -0.31, 32 0" stroke="#1e1e1e" stroke-width="1" fill="none"></path></g><g stroke-linecap="round"><g transform="translate(528.3573867834481 413.84762598696216) rotate(0 124.1816304476522 -1.4040734078395758)"><path d="M1.19 0.77 C42.6 0.11, 207 -3.17, 248.01 -3.58 M0.36 0.13 C41.63 -0.47, 205.43 -2.01, 246.98 -2.63" stroke="#1e1e1e" stroke-width="1" fill="none"></path></g></g><mask></mask><g transform="translate(549.9247883387969 383.4964306374203) rotate(0 60.9375 9.599999999999994)"><text x="0" y="0" font-family="Cascadia, Segoe UI Emoji" font-size="16px" fill="#1e1e1e" text-anchor="start" style="white-space: pre;" direction="ltr" dominant-baseline="text-before-edge">WhitakerEntry</text></g><g transform="translate(547.7246998378204 431.4868731423031) rotate(0 98.4375 48)"><text x="0" y="0" font-family="Cascadia, Segoe UI Emoji" font-size="16px" fill="#1e1e1e" text-anchor="start" style="white-space: pre;" direction="ltr" dominant-baseline="text-before-edge">Contains a parsed</text><text x="0" y="19.2" font-family="Cascadia, Segoe UI Emoji" font-size="16px" fill="#1e1e1e" text-anchor="start" style="white-space: pre;" direction="ltr" dominant-baseline="text-before-edge">Whitaker's WORD entry</text><text x="0" y="38.4" font-family="Cascadia, Segoe UI Emoji" font-size="16px" fill="#1e1e1e" text-anchor="start" style="white-space: pre;" direction="ltr" dominant-baseline="text-before-edge">and information that</text><text x="0" y="57.599999999999994" font-family="Cascadia, Segoe UI Emoji" font-size="16px" fill="#1e1e1e" text-anchor="start" style="white-space: pre;" direction="ltr" dominant-baseline="text-before-edge">help user-friendly</text><text x="0" y="76.8" font-family="Cascadia, Segoe UI Emoji" font-size="16px" fill="#1e1e1e" text-anchor="start" style="white-space: pre;" direction="ltr" dominant-baseline="text-before-edge">representation.</text></g><g stroke-linecap="round" transform="translate(489.7251717703681 118.10436068254825) rotate(0 161.28488803116062 97.26555024747927)"><path d="M32 0 M32 0 C101.68 1.65, 170.51 -0.34, 290.57 0 M32 0 C86.57 0.14, 141.14 0.38, 290.57 0 M290.57 0 C313.72 -0.13, 322.08 12.55, 322.57 32 M290.57 0 C312.11 -1.08, 324.54 9.88, 322.57 32 M322.57 32 C321.05 74.66, 320.84 118.95, 322.57 162.53 M322.57 32 C321.85 80.7, 320.57 127.1, 322.57 162.53 M322.57 162.53 C324.53 184.16, 311.4 194.8, 290.57 194.53 M322.57 162.53 C324.52 183.33, 310.69 196.21, 290.57 194.53 M290.57 194.53 C214.36 194.03, 134.46 196.33, 32 194.53 M290.57 194.53 C220.2 196.22, 149 196.69, 32 194.53 M32 194.53 C11.97 196.41, 1.26 184.33, 0 162.53 M32 194.53 C9.68 196.29, -1.08 185.86, 0 162.53 M0 162.53 C0.6 117.56, 1.58 71.4, 0 32 M0 162.53 C-1.37 115.65, -1.12 68.53, 0 32 M0 32 C1.48 10.27, 11.87 0.89, 32 0 M0 32 C-1.39 11.65, 9.77 1.43, 32 0" stroke="#1e1e1e" stroke-width="1" fill="none"></path></g><g stroke-linecap="round"><g transform="translate(491.4543766855551 169.11471835694385) rotate(0 157.3111335704039 -0.061249978943109795)"><path d="M0.45 -1.09 C52.75 -1.09, 260.81 -0.51, 313.23 -0.23 M-0.78 0.95 C51.94 1.08, 262.84 0.62, 315.4 0.75" stroke="#1e1e1e" stroke-width="1" fill="none"></path></g></g><mask></mask><g transform="translate(512.9251839773993 135.9140585585248) rotate(0 70.3125 9.600000000000001)"><text x="0" y="0" font-family="Cascadia, Segoe UI Emoji" font-size="16px" fill="#1e1e1e" text-anchor="start" style="white-space: pre;" direction="ltr" dominant-baseline="text-before-edge">WhitakerManager</text></g><g transform="translate(510.7250954764228 183.90450106340762) rotate(0 135.93750000000006 48)"><text x="0" y="0" font-family="Cascadia, Segoe UI Emoji" font-size="16px" fill="#1e1e1e" text-anchor="start" style="white-space: pre;" direction="ltr" dominant-baseline="text-before-edge">Spawns processes of the</text><text x="0" y="19.2" font-family="Cascadia, Segoe UI Emoji" font-size="16px" fill="#1e1e1e" text-anchor="start" style="white-space: pre;" direction="ltr" dominant-baseline="text-before-edge">Whitaker's WORD Latin dictio-</text><text x="0" y="38.4" font-family="Cascadia, Segoe UI Emoji" font-size="16px" fill="#1e1e1e" text-anchor="start" style="white-space: pre;" direction="ltr" dominant-baseline="text-before-edge">nary to look up large amounts</text><text x="0" y="57.599999999999994" font-family="Cascadia, Segoe UI Emoji" font-size="16px" fill="#1e1e1e" text-anchor="start" style="white-space: pre;" direction="ltr" dominant-baseline="text-before-edge">of words.</text><text x="0" y="76.8" font-family="Cascadia, Segoe UI Emoji" font-size="16px" fill="#1e1e1e" text-anchor="start" style="white-space: pre;" direction="ltr" dominant-baseline="text-before-edge">Supports indexed lookup.</text></g><g transform="translate(597.5744541713165 65.07937791612429) rotate(0 46.875 12)"><text x="0" y="0" font-family="Cascadia, Segoe UI Emoji" font-size="20px" fill="#1e1e1e" text-anchor="start" style="white-space: pre;" direction="ltr" dominant-baseline="text-before-edge">Whitaker</text></g><g stroke-linecap="round"><g transform="translate(647.0253121512272 317.6508849613252) rotate(0 1.2536786850141652 22.7613044986754)"><path d="M0.9 -0.03 C0.9 7.75, 0.08 39.07, 0.32 46.62 M-0.09 -1.1 C0.27 6.37, 2.22 37.07, 2.6 44.97" stroke="#1e1e1e" stroke-width="4" fill="none"></path></g><g transform="translate(647.0253121512272 317.6508849613252) rotate(0 1.2536786850141652 22.7613044986754)"><path d="M-6.48 22.59 C-2.02 32.63, -1.41 38.35, 4.59 43.47 M-5.58 23.47 C-4.75 30.72, -0.3 36.08, 2.88 44.95" stroke="#1e1e1e" stroke-width="4" fill="none"></path></g><g transform="translate(647.0253121512272 317.6508849613252) rotate(0 1.2536786850141652 22.7613044986754)"><path d="M9.14 21.71 C8.56 32.15, 4.14 38.15, 4.59 43.47 M10.03 22.59 C6.37 30.1, 6.31 35.71, 2.88 44.95" stroke="#1e1e1e" stroke-width="4" fill="none"></path></g></g><mask></mask><g stroke-linecap="round" transform="translate(126.38241141183016 957.2850973946709) rotate(0 351.428567068917 197.08569553920194)"><path d="M32 0 M32 0 C257.27 0.12, 481.92 -0.9, 670.86 0 M670.86 0 C691.76 -0.95, 702.88 8.99, 702.86 32 M702.86 32 C705.16 103.95, 704.4 177.92, 702.86 362.17 M702.86 362.17 C702.78 382.57, 692.42 396.1, 670.86 394.17 M670.86 394.17 C533.93 395.12, 398.25 394.49, 32 394.17 M32 394.17 C9.5 392.6, -1.33 384.24, 0 362.17 M0 362.17 C1.16 238.65, 0.95 116.9, 0 32 M0 32 C1.62 11.83, 12.64 -0.9, 32 0" stroke="#1e1e1e" stroke-width="1.5" fill="none" stroke-dasharray="8 9"></path></g><g transform="translate(441.9805607871399 930.6882445320252) rotate(0 23.4375 12)"><text x="0" y="0" font-family="Cascadia, Segoe UI Emoji" font-size="20px" fill="#1e1e1e" text-anchor="start" style="white-space: pre;" direction="ltr" dominant-baseline="text-before-edge">Page</text></g><g stroke-linecap="round" transform="translate(164.31110600062743 998.0423202514646) rotate(0 129.29999542236328 60.21428244454523)"><path d="M30.11 0 M30.11 0 C105.61 -0.87, 178.21 0.92, 228.49 0 M30.11 0 C80.66 0.63, 129.13 0.53, 228.49 0 M228.49 0 C248.43 -0.37, 260.03 8.83, 258.6 30.11 M228.49 0 C247.33 -1.15, 258.05 8.13, 258.6 30.11 M258.6 30.11 C257.52 48.23, 259.42 69.58, 258.6 90.32 M258.6 30.11 C258.13 42.76, 257.49 57.65, 258.6 90.32 M258.6 90.32 C257.13 111.1, 248.51 121.08, 228.49 120.43 M258.6 90.32 C256.5 112.66, 248.65 118.8, 228.49 120.43 M228.49 120.43 C170.16 123.48, 112.65 121.44, 30.11 120.43 M228.49 120.43 C183.99 121.21, 139.55 121.16, 30.11 120.43 M30.11 120.43 C11.34 119.9, 1.14 110.48, 0 90.32 M30.11 120.43 C10.59 120.92, -0.34 112.03, 0 90.32 M0 90.32 C-1.57 67.9, -1.15 42.07, 0 30.11 M0 90.32 C-0.96 73.89, 0.34 57.96, 0 30.11 M0 30.11 C-0.52 9.98, 12.02 0.68, 30.11 0 M0 30.11 C-1.79 8.43, 8.38 -1.36, 30.11 0" stroke="#1e1e1e" stroke-width="1" fill="none"></path></g><g stroke-linecap="round"><g transform="translate(165.91114262172118 1045.2423019409177) rotate(0 126.34092844075522 -1.6777098838240363)"><path d="M-0.05 -0.37 C42.24 -0.98, 211.94 -2.67, 254.22 -2.98 M-1.54 -1.61 C40.64 -2.13, 211.38 -1.87, 253.81 -1.75" stroke="#1e1e1e" stroke-width="1" fill="none"></path></g></g><mask></mask><g transform="translate(187.51111820765868 1010.8519418334961) rotate(0 51.5625 9.600000000000023)"><text x="0" y="0" font-family="Cascadia, Segoe UI Emoji" font-size="16px" fill="#1e1e1e" text-anchor="start" style="white-space: pre;" direction="ltr" dominant-baseline="text-before-edge">PageManager</text></g><g transform="translate(180.31110600062743 1058.8423080444334) rotate(0 103.125 19.200000000000045)"><text x="0" y="0" font-family="Cascadia, Segoe UI Emoji" font-size="16px" fill="#1e1e1e" text-anchor="start" style="white-space: pre;" direction="ltr" dominant-baseline="text-before-edge">Generation and storage</text><text x="0" y="19.2" font-family="Cascadia, Segoe UI Emoji" font-size="16px" fill="#1e1e1e" text-anchor="start" style="white-space: pre;" direction="ltr" dominant-baseline="text-before-edge">of pages.</text></g><g stroke-linecap="round" transform="translate(511.3968603951582 998.185085841588) rotate(0 129.29999542236328 57.35713958740223)"><path d="M28.68 0 M28.68 0 C92.64 -1.55, 156.39 -1.07, 229.92 0 M28.68 0 C74.32 1.2, 120.19 2.32, 229.92 0 M229.92 0 C249.21 -0.84, 257.77 10.65, 258.6 28.68 M229.92 0 C249.91 1.12, 260.59 9.03, 258.6 28.68 M258.6 28.68 C260.24 47.47, 260.56 67.66, 258.6 86.04 M258.6 28.68 C259.2 41.17, 257.89 52.9, 258.6 86.04 M258.6 86.04 C259.12 105.84, 248.8 115.29, 229.92 114.71 M258.6 86.04 C257.36 103.29, 248.83 112.8, 229.92 114.71 M229.92 114.71 C153.86 116.42, 77.53 115.81, 28.68 114.71 M229.92 114.71 C184.43 114.14, 141.16 115.12, 28.68 114.71 M28.68 114.71 C8.62 115.86, 0.34 104.82, 0 86.04 M28.68 114.71 C10.86 115.46, 0.09 106.36, 0 86.04 M0 86.04 C-0.51 73.34, 0.38 58.58, 0 28.68 M0 86.04 C-0.53 75.19, -0.55 62.49, 0 28.68 M0 28.68 C0.72 9.79, 7.91 -0.18, 28.68 0 M0 28.68 C1.47 7.37, 8.15 -0.15, 28.68 0" stroke="#1e1e1e" stroke-width="1" fill="none"></path></g><g stroke-linecap="round"><g transform="translate(512.996897016252 1045.3850675310412) rotate(0 126.50304425992073 -1.6451491180807807)"><path d="M-0.26 -0.01 C41.82 -0.57, 210.88 -2.7, 253.26 -3.28 M1.81 -1.06 C43.67 -1.5, 210.36 -1.92, 252.35 -2.2" stroke="#1e1e1e" stroke-width="1" fill="none"></path></g></g><mask></mask><g transform="translate(534.5968726021895 1010.9947074236195) rotate(0 18.75 9.600000000000023)"><text x="0" y="0" font-family="Cascadia, Segoe UI Emoji" font-size="16px" fill="#1e1e1e" text-anchor="start" style="white-space: pre;" direction="ltr" dominant-baseline="text-before-edge">Page</text></g><g transform="translate(527.3968603951582 1058.9850736345568) rotate(0 98.4375 19.200000000000045)"><text x="0" y="0" font-family="Cascadia, Segoe UI Emoji" font-size="16px" fill="#1e1e1e" text-anchor="start" style="white-space: pre;" direction="ltr" dominant-baseline="text-before-edge">Provides data for the</text><text x="0" y="19.2" font-family="Cascadia, Segoe UI Emoji" font-size="16px" fill="#1e1e1e" text-anchor="start" style="white-space: pre;" direction="ltr" dominant-baseline="text-before-edge">Handlebars templates.</text></g><g stroke-linecap="round"><g transform="translate(427.3253675188332 1063.525354124522) rotate(0 41.089368171458716 -0.0969151422136747)"><path d="M-0.41 -1.14 C12.9 -1.12, 66.5 -1.24, 80.19 -0.95 M1.57 0.87 C15.26 1.15, 69.28 0.65, 82.59 0.31" stroke="#1e1e1e" stroke-width="4" fill="none"></path></g><g transform="translate(427.3253675188332 1063.525354124522) rotate(0 41.089368171458716 -0.0969151422136747)"><path d="M52.66 10.03 C62.9 9.14, 74.62 3.34, 83.07 -0.45 M55.06 11.26 C65.09 6.36, 72.91 3.24, 83.39 0.13" stroke="#1e1e1e" stroke-width="4" fill="none"></path></g><g transform="translate(427.3253675188332 1063.525354124522) rotate(0 41.089368171458716 -0.0969151422136747)"><path d="M52.33 -10.48 C62.49 -4.68, 74.31 -3.8, 83.07 -0.45 M54.73 -9.26 C65.08 -7.06, 73.01 -3.09, 83.39 0.13" stroke="#1e1e1e" stroke-width="4" fill="none"></path></g></g><mask></mask><g stroke-linecap="round" transform="translate(511.69179680233833 1175.2421319144112) rotate(0 129.29999542236328 57.35713958740223)"><path d="M28.68 0 M28.68 0 C71.42 -0.61, 112.62 -0.7, 229.92 0 M28.68 0 C97.45 2, 166.54 2.16, 229.92 0 M229.92 0 C247.48 0.13, 260.27 11.14, 258.6 28.68 M229.92 0 C250.6 0.17, 259.68 8.38, 258.6 28.68 M258.6 28.68 C259.16 45.49, 256.44 62.92, 258.6 86.04 M258.6 28.68 C258.61 47.36, 258.6 65.21, 258.6 86.04 M258.6 86.04 C256.67 105.98, 247.11 113.53, 229.92 114.71 M258.6 86.04 C256.31 106.07, 250.12 113.21, 229.92 114.71 M229.92 114.71 C179.37 115.14, 129.58 116.72, 28.68 114.71 M229.92 114.71 C158.75 113.79, 88.9 112.13, 28.68 114.71 M28.68 114.71 C8.17 113.56, 1.32 103.22, 0 86.04 M28.68 114.71 C9.17 114.78, -2.27 104.93, 0 86.04 M0 86.04 C-0.82 72.97, -0.18 58.17, 0 28.68 M0 86.04 C-0.39 66.74, -0.72 46.37, 0 28.68 M0 28.68 C0.99 10.57, 8.31 1.09, 28.68 0 M0 28.68 C-0.82 8.91, 7.33 0.34, 28.68 0" stroke="#1e1e1e" stroke-width="1" fill="none"></path></g><g stroke-linecap="round"><g transform="translate(513.2918334234321 1222.4421136038643) rotate(0 126.64976320649032 -1.7448792569572333)"><path d="M-1 0.26 C41.12 -0.16, 209.94 -1.3, 252.14 -1.89 M0.68 -0.65 C43.21 -1.49, 211.97 -3.45, 254.3 -3.75" stroke="#1e1e1e" stroke-width="1" fill="none"></path></g></g><mask></mask><g transform="translate(534.8918090093696 1188.0517534964426) rotate(0 51.5625 9.600000000000023)"><text x="0" y="0" font-family="Cascadia, Segoe UI Emoji" font-size="16px" fill="#1e1e1e" text-anchor="start" style="white-space: pre;" direction="ltr" dominant-baseline="text-before-edge">PageSection</text></g><g transform="translate(527.6917968023383 1236.04211970738) rotate(0 89.0625 19.200000000000045)"><text x="0" y="0" font-family="Cascadia, Segoe UI Emoji" font-size="16px" fill="#1e1e1e" text-anchor="start" style="white-space: pre;" direction="ltr" dominant-baseline="text-before-edge">Joins data from all</text><text x="0" y="19.2" font-family="Cascadia, Segoe UI Emoji" font-size="16px" fill="#1e1e1e" text-anchor="start" style="white-space: pre;" direction="ltr" dominant-baseline="text-before-edge">section types.</text></g><g stroke-linecap="round" transform="translate(170.2632689703073 1176.6707033429823) rotate(0 129.29999542236328 57.35713958740223)"><path d="M28.68 0 M28.68 0 C89.01 -1.02, 147.78 -0.95, 229.92 0 M28.68 0 C107.14 1.76, 184.25 0.62, 229.92 0 M229.92 0 C247.3 -1.89, 257.24 9.1, 258.6 28.68 M229.92 0 C248.03 -1.39, 259.86 11.65, 258.6 28.68 M258.6 28.68 C260.61 44.54, 260.62 65.44, 258.6 86.04 M258.6 28.68 C258.33 47.78, 258.95 64.39, 258.6 86.04 M258.6 86.04 C260.41 103.54, 250.45 113.75, 229.92 114.71 M258.6 86.04 C257.73 107.42, 248.79 112.93, 229.92 114.71 M229.92 114.71 C180.69 116.18, 128.46 114.81, 28.68 114.71 M229.92 114.71 C184.78 114.78, 139.24 115.44, 28.68 114.71 M28.68 114.71 C9.52 115.08, -1.74 103.26, 0 86.04 M28.68 114.71 C9.13 114.76, 1.58 106.26, 0 86.04 M0 86.04 C0.97 64.14, 0.47 42.15, 0 28.68 M0 86.04 C0.28 67.49, 0.82 50.59, 0 28.68 M0 28.68 C0.11 8.14, 8.07 -1.23, 28.68 0 M0 28.68 C-1.43 8.68, 10.42 0.64, 28.68 0" stroke="#1e1e1e" stroke-width="1" fill="none"></path></g><g stroke-linecap="round"><g transform="translate(171.86330559140106 1223.8706850324354) rotate(0 126.05342104882001 -0.6600284930040061)"><path d="M-0.57 -0.66 C41.52 -0.92, 210.48 -0.95, 252.68 -1.35 M1.33 1.6 C43.21 1.01, 209.75 -2.31, 251.46 -2.92" stroke="#1e1e1e" stroke-width="1" fill="none"></path></g></g><mask></mask><g transform="translate(193.46328117733856 1189.4803249250137) rotate(0 42.1875 9.600000000000023)"><text x="0" y="0" font-family="Cascadia, Segoe UI Emoji" font-size="16px" fill="#1e1e1e" text-anchor="start" style="white-space: pre;" direction="ltr" dominant-baseline="text-before-edge">PageToken</text></g><g transform="translate(186.2632689703073 1237.470691135951) rotate(0 98.4375 19.200000000000045)"><text x="0" y="0" font-family="Cascadia, Segoe UI Emoji" font-size="16px" fill="#1e1e1e" text-anchor="start" style="white-space: pre;" direction="ltr" dominant-baseline="text-before-edge">CSS classes and other</text><text x="0" y="19.2" font-family="Cascadia, Segoe UI Emoji" font-size="16px" fill="#1e1e1e" text-anchor="start" style="white-space: pre;" direction="ltr" dominant-baseline="text-before-edge">display-related info.</text></g><g stroke-linecap="round" transform="translate(1392.3254975818447 41.02790941510915) rotate(0 169.99979654947924 665.9999211629231)"><path d="M32 0 M32 0 C97.15 2.66, 163.73 3.02, 308 0 M308 0 C328.31 -1.07, 339.54 10.26, 340 32 M340 32 C338.16 353.77, 337.28 677.33, 340 1300 M340 1300 C338.36 1322.12, 330.43 1333.07, 308 1332 M308 1332 C249.84 1332.81, 191.81 1330.42, 32 1332 M32 1332 C12.52 1330.33, 1.25 1319.92, 0 1300 M0 1300 C5.09 839.81, 4.36 379.49, 0 32 M0 32 C1.68 12.62, 9.2 1.61, 32 0" stroke="#1e1e1e" stroke-width="1.5" fill="none" stroke-dasharray="8 9"></path></g><g transform="translate(1518.545212518601 16.265858968099124) rotate(0 41.015625 12)"><text x="0" y="0" font-family="Cascadia, Segoe UI Emoji" font-size="20px" fill="#1e1e1e" text-anchor="start" style="white-space: pre;" direction="ltr" dominant-baseline="text-before-edge">Utility</text></g><g stroke-linecap="round"><g transform="translate(276.9839913504459 954.730240110367) rotate(0 0.9752377984781333 -30.995411998199074)"><path d="M-0.76 -0.43 C-0.76 -10.5, 0.2 -51.53, 0.31 -61.56 M1.04 -1.71 C1.42 -11.56, 2.51 -51, 2.71 -60.6" stroke="#1e1e1e" stroke-width="4" fill="none"></path></g><g transform="translate(276.9839913504459 954.730240110367) rotate(0 0.9752377984781333 -30.995411998199074)"><path d="M11.54 -33.14 C7.59 -43.09, 6.11 -51.1, 2.91 -61.02 M12.36 -32.3 C9.69 -38.33, 7.73 -44.45, 2.88 -59.91" stroke="#1e1e1e" stroke-width="4" fill="none"></path></g><g transform="translate(276.9839913504459 954.730240110367) rotate(0 0.9752377984781333 -30.995411998199074)"><path d="M-8.98 -33.65 C-6.29 -43.31, -1.13 -51.15, 2.91 -61.02 M-8.15 -32.82 C-6.32 -38.7, -3.78 -44.71, 2.88 -59.91" stroke="#1e1e1e" stroke-width="4" fill="none"></path></g></g><mask></mask><g stroke-linecap="round"><g transform="translate(684.095129588293 954.730240110367) rotate(0 0.4847164483242068 -177.68403444207382)"><path d="M-0.49 0.45 C-0.38 -58.83, 1.25 -296.53, 1.15 -355.82 M1.46 -0.36 C1.47 -59.53, 0.84 -295.9, 0.8 -354.89" stroke="#1e1e1e" stroke-width="4" fill="none"></path></g><g transform="translate(684.095129588293 954.730240110367) rotate(0 0.4847164483242068 -177.68403444207382)"><path d="M11.87 -324.8 C5.7 -338.16, 3.06 -344.48, 0.18 -353.65 M10.38 -326.51 C8.34 -335.18, 4.81 -345.2, 0.41 -354.05" stroke="#1e1e1e" stroke-width="4" fill="none"></path></g><g transform="translate(684.095129588293 954.730240110367) rotate(0 0.4847164483242068 -177.68403444207382)"><path d="M-8.65 -324.76 C-7.83 -338.06, -3.47 -344.38, 0.18 -353.65 M-10.14 -326.47 C-5.51 -335.24, -2.37 -345.27, 0.41 -354.05" stroke="#1e1e1e" stroke-width="4" fill="none"></path></g></g><mask></mask><g stroke-linecap="round"><g transform="translate(831.6506715804805 1053.3968932136656) rotate(0 46.29231436067414 -1.3323847865008247)"><path d="M-0.01 -0.62 C15.81 -1.23, 78.32 -3.77, 94.06 -4.33 M-1.48 1.67 C14.33 1.33, 77.54 -1.45, 93.5 -2.73" stroke="#1e1e1e" stroke-width="4" fill="none"></path></g><g transform="translate(831.6506715804805 1053.3968932136656) rotate(0 46.29231436067414 -1.3323847865008247)"><path d="M64.92 10.39 C72.47 8.31, 79.33 3.59, 95.01 -2.98 M65.13 9.39 C76.82 3.9, 86.3 1.01, 93.29 -2.73" stroke="#1e1e1e" stroke-width="4" fill="none"></path></g><g transform="translate(831.6506715804805 1053.3968932136656) rotate(0 46.29231436067414 -1.3323847865008247)"><path d="M63.71 -10.1 C71.42 -7.52, 78.55 -7.58, 95.01 -2.98 M63.92 -11.1 C76.17 -9.02, 86.09 -4.35, 93.29 -2.73" stroke="#1e1e1e" stroke-width="4" fill="none"></path></g></g><mask></mask><g stroke-linecap="round"><g transform="translate(646.3807721819189 1114.8095601399737) rotate(0 1.2226365553129313 29.470970885568704)"><path d="M0.53 0.94 C1.02 10.27, 2.46 47.71, 3.09 57.06 M-0.65 0.38 C-0.36 10.43, 1.19 48.9, 1.97 58.56" stroke="#1e1e1e" stroke-width="4" fill="none"></path></g><g transform="translate(646.3807721819189 1114.8095601399737) rotate(0 1.2226365553129313 29.470970885568704)"><path d="M-7.78 31.7 C-5.71 41.91, -2.19 47.86, 0.88 58.33 M-8.69 32.78 C-5.02 39.99, -1.14 48.85, 1.91 59.11" stroke="#1e1e1e" stroke-width="4" fill="none"></path></g><g transform="translate(646.3807721819189 1114.8095601399737) rotate(0 1.2226365553129313 29.470970885568704)"><path d="M11.77 30.59 C7.75 41.23, 5.17 47.53, 0.88 58.33 M10.85 31.67 C8.24 39.39, 5.82 48.61, 1.91 59.11" stroke="#1e1e1e" stroke-width="4" fill="none"></path></g></g><mask></mask><g stroke-linecap="round"><g transform="translate(509.2379150390618 1235.952443440755) rotate(0 -39.784179795426894 1.0878043470638659)"><path d="M0.24 -0.53 C-12.87 -0.22, -66.45 2.12, -79.81 2.7 M-1.09 1.81 C-13.73 1.67, -64.85 0.93, -77.6 0.8" stroke="#1e1e1e" stroke-width="4" fill="none"></path></g><g transform="translate(509.2379150390618 1235.952443440755) rotate(0 -39.784179795426894 1.0878043470638659)"><path d="M-50.15 -10.69 C-54.27 -8.82, -59.54 -4.34, -75.69 1.99 M-48.81 -9.21 C-55.47 -7.35, -62.38 -3.72, -77.13 0.78" stroke="#1e1e1e" stroke-width="4" fill="none"></path></g><g transform="translate(509.2379150390618 1235.952443440755) rotate(0 -39.784179795426894 1.0878043470638659)"><path d="M-50.41 9.83 C-54.63 7.53, -59.85 7.84, -75.69 1.99 M-49.07 11.31 C-55.81 8.19, -62.65 6.84, -77.13 0.78" stroke="#1e1e1e" stroke-width="4" fill="none"></path></g></g><mask></mask><g stroke-linecap="round" transform="translate(10 35.66670735677093) rotate(0 644.0000406901038 679.9999999999998)"><path d="M32 0 M32 0 C352.77 3.81, 674.12 4.08, 1256 0 M1256 0 C1278.98 -1.75, 1288.67 9.29, 1288 32 M1288 32 C1286.23 430.89, 1286.76 829, 1288 1328 M1288 1328 C1287.35 1350.21, 1277.95 1359.71, 1256 1360 M1256 1360 C839.74 1361.61, 424.51 1361.58, 32 1360 M32 1360 C10 1359.62, 1.07 1349.72, 0 1328 M0 1328 C1.21 847.98, 0.08 366.66, 0 32 M0 32 C-1.07 12.58, 11.45 -0.4, 32 0" stroke="#1e1e1e" stroke-width="1.5" fill="none" stroke-dasharray="8 9"></path></g><g stroke-linecap="round"><g transform="translate(1300.3332926432286 613.8214903947196) rotate(0 44.013296955561714 4.2201480218678284)"><path d="M0.04 0.15 C14.94 1.44, 74.4 6.56, 89.43 7.93 M-1.4 -0.81 C13.34 0.63, 73.32 7.5, 88.53 9.25" stroke="#1e1e1e" stroke-width="4" fill="none"></path></g><g transform="translate(1300.3332926432286 613.8214903947196) rotate(0 44.013296955561714 4.2201480218678284)"><path d="M59.61 16.4 C67.48 15.56, 77.02 11.85, 87.46 7.7 M60.14 15.65 C64.66 14.01, 71.48 13.73, 88.21 9.99" stroke="#1e1e1e" stroke-width="4" fill="none"></path></g><g transform="translate(1300.3332926432286 613.8214903947196) rotate(0 44.013296955561714 4.2201480218678284)"><path d="M61.95 -3.99 C69.15 1.34, 77.98 3.8, 87.46 7.7 M62.48 -4.73 C66.46 -1.98, 72.78 2.12, 88.21 9.99" stroke="#1e1e1e" stroke-width="4" fill="none"></path></g></g><mask></mask><g stroke-linecap="round" transform="translate(1438.9199237722303 76.33339436848956) rotate(0 122.80001831054688 62.00002034505209)"><path d="M31 0 M31 0 C96.52 -0.12, 161.9 -0.18, 214.6 0 M31 0 C78.9 1.12, 126.03 1.09, 214.6 0 M214.6 0 C233.33 0.82, 244.91 8.78, 245.6 31 M214.6 0 C235.77 2.25, 243.66 8.58, 245.6 31 M245.6 31 C247.71 52.7, 244.27 71.64, 245.6 93 M245.6 31 C246.45 48.72, 246.6 67.02, 245.6 93 M245.6 93 C245.88 114.92, 236.57 122.32, 214.6 124 M245.6 93 C245.41 114.97, 235.36 126.11, 214.6 124 M214.6 124 C171.45 122.96, 131.38 125.41, 31 124 M214.6 124 C177.88 124.73, 140.39 125.91, 31 124 M31 124 C10.93 122.65, 1.05 114.15, 0 93 M31 124 C8.14 122.41, 1.16 114.19, 0 93 M0 93 C-0.96 71.5, -1.93 52.7, 0 31 M0 93 C0 70.16, -0.48 46.41, 0 31 M0 31 C-0.51 8.68, 9.52 -0.47, 31 0 M0 31 C-0.88 9.14, 10.07 1.87, 31 0" stroke="#1e1e1e" stroke-width="1" fill="none"></path></g><g stroke-linecap="round"><g transform="translate(1440.519960393324 123.53337605794269) rotate(0 121.4650423487509 -1.128168682754044)"><path d="M-1.16 0.62 C39.37 0.08, 201.34 -2.25, 242 -2.88 M0.43 -0.09 C41.42 -0.5, 203.85 -1.24, 244.09 -1.59" stroke="#1e1e1e" stroke-width="1" fill="none"></path></g></g><mask></mask><g transform="translate(1462.1199359792615 89.1430159505208) rotate(0 42.1875 9.600000000000001)"><text x="0" y="0" font-family="Cascadia, Segoe UI Emoji" font-size="16px" fill="#1e1e1e" text-anchor="start" style="white-space: pre;" direction="ltr" dominant-baseline="text-before-edge">XmlParser</text></g><g transform="translate(1454.9199237722303 137.13338216145831) rotate(0 98.4375 19.200000000000003)"><text x="0" y="0" font-family="Cascadia, Segoe UI Emoji" font-size="16px" fill="#1e1e1e" text-anchor="start" style="white-space: pre;" direction="ltr" dominant-baseline="text-before-edge">Low-memory on-the-fly</text><text x="0" y="19.2" font-family="Cascadia, Segoe UI Emoji" font-size="16px" fill="#1e1e1e" text-anchor="start" style="white-space: pre;" direction="ltr" dominant-baseline="text-before-edge">parser.</text></g><g transform="translate(81.1034124465217 10) rotate(0 82.03125 12)"><text x="0" y="0" font-family="Cascadia, Segoe UI Emoji" font-size="20px" fill="#1e1e1e" text-anchor="start" style="white-space: pre;" direction="ltr" dominant-baseline="text-before-edge">Business logic</text></g><g stroke-linecap="round" transform="translate(1442.9417173776483 451.66677347819046) rotate(0 122.80001831054688 68.00008138020837)"><path d="M32 0 M32 0 C84.47 0.58, 138.95 0.74, 213.6 0 M32 0 C103.34 -0.33, 175.77 -0.92, 213.6 0 M213.6 0 C235.86 0.33, 246.52 9.53, 245.6 32 M213.6 0 C233.34 2.06, 243.43 9.75, 245.6 32 M245.6 32 C244.68 47.49, 245.49 60.52, 245.6 104 M245.6 32 C246.21 53.66, 245.63 76.61, 245.6 104 M245.6 104 C244.07 127.07, 234.13 137.86, 213.6 136 M245.6 104 C245.22 123.67, 237.05 136.52, 213.6 136 M213.6 136 C165.79 138.55, 116.72 138.54, 32 136 M213.6 136 C141.89 135.89, 71.55 135.05, 32 136 M32 136 C10.99 137.25, -0.42 123.74, 0 104 M32 136 C12.48 135.42, -0.17 127.58, 0 104 M0 104 C1.7 80.38, -0.83 54.57, 0 32 M0 104 C1.45 85.13, -0.18 67.3, 0 32 M0 32 C-0.98 9.6, 11.92 -0.71, 32 0 M0 32 C1.62 9.39, 8.81 -2.1, 32 0" stroke="#1e1e1e" stroke-width="1" fill="none"></path></g><g stroke-linecap="round"><g transform="translate(1444.541753998742 498.8667551676436) rotate(0 121.63327148477083 -1.3862024625769607)"><path d="M0.57 0.03 C41.17 -0.09, 203.35 -0.88, 243.86 -1.27 M-0.59 -1 C39.89 -1.37, 202.65 -2.81, 243.26 -2.8" stroke="#1e1e1e" stroke-width="1" fill="none"></path></g></g><mask></mask><g transform="translate(1466.1417295846795 464.4763950602217) rotate(0 46.875 9.599999999999994)"><text x="0" y="0" font-family="Cascadia, Segoe UI Emoji" font-size="16px" fill="#1e1e1e" text-anchor="start" style="white-space: pre;" direction="ltr" dominant-baseline="text-before-edge">Handlebars</text></g><g transform="translate(1458.9417173776483 512.4667612711592) rotate(0 112.5 28.80000000000001)"><text x="0" y="0" font-family="Cascadia, Segoe UI Emoji" font-size="16px" fill="#1e1e1e" text-anchor="start" style="white-space: pre;" direction="ltr" dominant-baseline="text-before-edge">Connector to the Handle-</text><text x="0" y="19.2" font-family="Cascadia, Segoe UI Emoji" font-size="16px" fill="#1e1e1e" text-anchor="start" style="white-space: pre;" direction="ltr" dominant-baseline="text-before-edge">bars library with a</text><text x="0" y="38.4" font-family="Cascadia, Segoe UI Emoji" font-size="16px" fill="#1e1e1e" text-anchor="start" style="white-space: pre;" direction="ltr" dominant-baseline="text-before-edge">minimal interface.</text></g><g stroke-linecap="round" transform="translate(1441.985492524646 651.0001169840496) rotate(0 122.80001831054688 57.333424886067746)"><path d="M28.67 0 M28.67 0 C71.21 2.68, 109.69 1.11, 216.93 0 M28.67 0 C94.09 1.03, 158.63 1.78, 216.93 0 M216.93 0 C236.24 -1.04, 247.38 7.91, 245.6 28.67 M216.93 0 C237.09 -1.22, 246.62 11.41, 245.6 28.67 M245.6 28.67 C244.69 46.45, 246.46 66.03, 245.6 86 M245.6 28.67 C245.31 40.88, 246.26 53.74, 245.6 86 M245.6 86 C247.08 104.73, 237.37 113.97, 216.93 114.67 M245.6 86 C244.81 102.97, 236.35 115.98, 216.93 114.67 M216.93 114.67 C165.8 111.87, 116.07 112.32, 28.67 114.67 M216.93 114.67 C149.29 113.34, 80.67 112.98, 28.67 114.67 M28.67 114.67 C11.2 113.69, 0.67 104.86, 0 86 M28.67 114.67 C7.94 113.89, 0.07 105.77, 0 86 M0 86 C2.52 70.5, 2.13 56.76, 0 28.67 M0 86 C-0.13 65.11, 0.59 44.49, 0 28.67 M0 28.67 C-0.1 9.23, 10.3 1.13, 28.67 0 M0 28.67 C-2.08 7.32, 8.31 0.99, 28.67 0" stroke="#1e1e1e" stroke-width="1" fill="none"></path></g><g stroke-linecap="round"><g transform="translate(1443.5855291457397 698.2000986735027) rotate(0 121.33215244962378 -2.086807870478367)"><path d="M0.74 -0.47 C41.39 -0.95, 202.53 -1.42, 242.99 -1.86 M-0.33 -1.77 C40.23 -2.68, 201.39 -3.63, 241.94 -3.7" stroke="#1e1e1e" stroke-width="1" fill="none"></path></g></g><mask></mask><g transform="translate(1465.1855047316772 663.8097385660808) rotate(0 32.8125 9.600000000000023)"><text x="0" y="0" font-family="Cascadia, Segoe UI Emoji" font-size="16px" fill="#1e1e1e" text-anchor="start" style="white-space: pre;" direction="ltr" dominant-baseline="text-before-edge">Console</text></g><g transform="translate(1457.985492524646 711.8001047770183) rotate(0 84.375 19.19999999999999)"><text x="0" y="0" font-family="Cascadia, Segoe UI Emoji" font-size="16px" fill="#1e1e1e" text-anchor="start" style="white-space: pre;" direction="ltr" dominant-baseline="text-before-edge">Executing external</text><text x="0" y="19.2" font-family="Cascadia, Segoe UI Emoji" font-size="16px" fill="#1e1e1e" text-anchor="start" style="white-space: pre;" direction="ltr" dominant-baseline="text-before-edge">programs.</text></g><g stroke-linecap="round" transform="translate(1441.3189886183973 997.9999593098955) rotate(0 122.80001831054688 68.00008138020837)"><path d="M32 0 M32 0 C89.44 0.85, 150.82 -1.18, 213.6 0 M32 0 C73.77 1.55, 114.04 1.33, 213.6 0 M213.6 0 C233.83 0.12, 245.55 11.13, 245.6 32 M213.6 0 C236.39 -0.9, 246.76 8.47, 245.6 32 M245.6 32 C247.49 61.71, 246.35 89.42, 245.6 104 M245.6 32 C246.54 46.34, 246.02 61.89, 245.6 104 M245.6 104 C245.35 127.28, 233.39 137.38, 213.6 136 M245.6 104 C245.72 125.14, 233.8 137.58, 213.6 136 M213.6 136 C151.18 136.95, 86.13 136.59, 32 136 M213.6 136 C162.56 135.99, 110.41 134.71, 32 136 M32 136 C8.74 136.28, -0.47 124.8, 0 104 M32 136 C12.2 134.94, -1.21 125.91, 0 104 M0 104 C-0.75 88.98, -0.12 73.46, 0 32 M0 104 C0.89 84.75, 0.57 63.61, 0 32 M0 32 C0.51 11.06, 9.4 1.6, 32 0 M0 32 C0.47 8.82, 9.73 0.61, 32 0" stroke="#1e1e1e" stroke-width="1" fill="none"></path></g><g stroke-linecap="round"><g transform="translate(1442.919025239491 1045.1999409993487) rotate(0 121.45631992840208 -1.4762392818927879)"><path d="M0.1 0.33 C40.52 -0.05, 201.42 -2.71, 242.09 -3.28 M-1.3 -0.55 C39.51 -0.71, 203.36 -1.93, 244.22 -2.2" stroke="#1e1e1e" stroke-width="1" fill="none"></path></g></g><mask></mask><g transform="translate(1464.5190008254283 1010.809580891927) rotate(0 28.125 9.600000000000023)"><text x="0" y="0" font-family="Cascadia, Segoe UI Emoji" font-size="16px" fill="#1e1e1e" text-anchor="start" style="white-space: pre;" direction="ltr" dominant-baseline="text-before-edge">Config</text></g><g transform="translate(1457.3189886183973 1058.7999471028643) rotate(0 93.75 28.799999999999955)"><text x="0" y="0" font-family="Cascadia, Segoe UI Emoji" font-size="16px" fill="#1e1e1e" text-anchor="start" style="white-space: pre;" direction="ltr" dominant-baseline="text-before-edge">Reading application</text><text x="0" y="19.2" font-family="Cascadia, Segoe UI Emoji" font-size="16px" fill="#1e1e1e" text-anchor="start" style="white-space: pre;" direction="ltr" dominant-baseline="text-before-edge">settings from an INI</text><text x="0" y="38.4" font-family="Cascadia, Segoe UI Emoji" font-size="16px" fill="#1e1e1e" text-anchor="start" style="white-space: pre;" direction="ltr" dominant-baseline="text-before-edge">file.</text></g><g stroke-linecap="round" transform="translate(1441.652342296782 826.999898274739) rotate(0 122.80001831054688 57.333424886067746)"><path d="M28.67 0 M28.67 0 C67.53 -3.47, 105.7 -3.72, 216.93 0 M28.67 0 C81.76 -0.23, 134.32 -0.5, 216.93 0 M216.93 0 C237.19 -0.88, 245.74 10.99, 245.6 28.67 M216.93 0 C237.53 0.98, 246.92 7.88, 245.6 28.67 M245.6 28.67 C246.29 43.69, 243.36 53.69, 245.6 86 M245.6 28.67 C245.31 44.14, 245.65 59.26, 245.6 86 M245.6 86 C243.83 104.6, 234.71 115.73, 216.93 114.67 M245.6 86 C244.79 105.23, 238.12 114.41, 216.93 114.67 M216.93 114.67 C177.81 116.67, 140.7 115.06, 28.67 114.67 M216.93 114.67 C154.75 113.55, 89.83 112.66, 28.67 114.67 M28.67 114.67 C9.42 113.43, 1.25 103.49, 0 86 M28.67 114.67 C9.09 114.07, -1.21 107.39, 0 86 M0 86 C0.56 64.73, 1.19 42.53, 0 28.67 M0 86 C0.04 65.35, 0.43 44.01, 0 28.67 M0 28.67 C0.14 8.29, 10.14 -1.27, 28.67 0 M0 28.67 C-0.92 7.42, 9.18 0.43, 28.67 0" stroke="#1e1e1e" stroke-width="1" fill="none"></path></g><g stroke-linecap="round"><g transform="translate(1443.2523789178758 874.1998799641922) rotate(0 121.5610438912222 -1.026988829672348)"><path d="M-1.01 0.56 C39.14 0.05, 201.38 -2.12, 242.04 -2.62 M0.66 -0.19 C41.06 -0.56, 203.91 -1.04, 244.14 -1.19" stroke="#1e1e1e" stroke-width="1" fill="none"></path></g></g><mask></mask><g transform="translate(1464.8523545038133 839.8095198567705) rotate(0 98.4375 9.600000000000023)"><text x="0" y="0" font-family="Cascadia, Segoe UI Emoji" font-size="16px" fill="#1e1e1e" text-anchor="start" style="white-space: pre;" direction="ltr" dominant-baseline="text-before-edge">RainbowLatinException</text></g><g transform="translate(1457.652342296782 887.7998860677078) rotate(0 103.125 19.19999999999999)"><text x="0" y="0" font-family="Cascadia, Segoe UI Emoji" font-size="16px" fill="#1e1e1e" text-anchor="start" style="white-space: pre;" direction="ltr" dominant-baseline="text-before-edge">Exception for library-</text><text x="0" y="19.2" font-family="Cascadia, Segoe UI Emoji" font-size="16px" fill="#1e1e1e" text-anchor="start" style="white-space: pre;" direction="ltr" dominant-baseline="text-before-edge">specific errors.</text></g><g stroke-linecap="round" transform="translate(1440.9414935820744 269.3333485921225) rotate(0 122.80001831054688 62.00002034505209)"><path d="M31 0 M31 0 C73.04 0.38, 119.26 2.29, 214.6 0 M31 0 C88.3 -0.62, 146.38 -0.31, 214.6 0 M214.6 0 C234.2 -1.36, 246.47 11.5, 245.6 31 M214.6 0 C234.17 0.26, 243.99 12.63, 245.6 31 M245.6 31 C244.03 50.07, 247.44 66.43, 245.6 93 M245.6 31 C245.34 50.44, 245.11 71.44, 245.6 93 M245.6 93 C245.26 114.12, 237.11 122.04, 214.6 124 M245.6 93 C246.41 112.71, 235.72 125.4, 214.6 124 M214.6 124 C163.51 121.19, 110.97 122, 31 124 M214.6 124 C146.61 123.72, 80 124.64, 31 124 M31 124 C10.05 123.28, -1.69 114.91, 0 93 M31 124 C9.98 124.94, 1.76 113.81, 0 93 M0 93 C0.13 75.87, 1.99 57.38, 0 31 M0 93 C0.19 69.43, 1.31 46.72, 0 31 M0 31 C1.39 8.66, 10.78 -1.66, 31 0 M0 31 C1.83 12.18, 8.58 0.56, 31 0" stroke="#1e1e1e" stroke-width="1" fill="none"></path></g><g stroke-linecap="round"><g transform="translate(1442.5415302031681 316.5333302815756) rotate(0 121.38581850350363 -0.9474825173616352)"><path d="M-0.05 0.35 C40.72 0.15, 203.7 -1.85, 244.3 -2.24 M-1.53 -0.52 C39.2 -0.4, 203.18 -0.02, 243.93 -0.62" stroke="#1e1e1e" stroke-width="1" fill="none"></path></g></g><mask></mask><g transform="translate(1464.1415057891056 282.14297017415373) rotate(0 42.1875 9.599999999999994)"><text x="0" y="0" font-family="Cascadia, Segoe UI Emoji" font-size="16px" fill="#1e1e1e" text-anchor="start" style="white-space: pre;" direction="ltr" dominant-baseline="text-before-edge">CanonFile</text></g><g transform="translate(1456.9414935820744 323.46666971842455) rotate(0 107.8125 28.799999999999983)"><text x="0" y="0" font-family="Cascadia, Segoe UI Emoji" font-size="16px" fill="#1e1e1e" text-anchor="start" style="white-space: pre;" direction="ltr" dominant-baseline="text-before-edge">Encapsulates info about</text><text x="0" y="19.2" font-family="Cascadia, Segoe UI Emoji" font-size="16px" fill="#1e1e1e" text-anchor="start" style="white-space: pre;" direction="ltr" dominant-baseline="text-before-edge">a file with canonical</text><text x="0" y="38.4" font-family="Cascadia, Segoe UI Emoji" font-size="16px" fill="#1e1e1e" text-anchor="start" style="white-space: pre;" direction="ltr" dominant-baseline="text-before-edge">naming scheme.</text></g><g stroke-linecap="round"><g transform="translate(1561.1190272739957 203.33341471354174) rotate(0 0.9844177037476811 32.97140443016151)"><path d="M-0.5 1.06 C-0.13 11.54, 1.81 53.25, 2.47 63.89 M1.44 0.58 C1.61 11.77, 1.14 54.96, 1.42 65.37" stroke="#1e1e1e" stroke-width="4" fill="none"></path></g><g transform="translate(1561.1190272739957 203.33341471354174) rotate(0 0.9844177037476811 32.97140443016151)"><path d="M-7.22 36.9 C-5.59 47.63, -0.56 54.34, 1.13 67 M-9.52 38.19 C-5.9 45.64, -2.48 53.76, 2.06 64.96" stroke="#1e1e1e" stroke-width="4" fill="none"></path></g><g transform="translate(1561.1190272739957 203.33341471354174) rotate(0 0.9844177037476811 32.97140443016151)"><path d="M13.3 36.8 C8.33 47.47, 6.77 54.22, 1.13 67 M11 38.08 C8.42 45.39, 5.64 53.54, 2.06 64.96" stroke="#1e1e1e" stroke-width="4" fill="none"></path></g></g><mask></mask><g stroke-linecap="round" transform="translate(1443.5844589501444 1195.6664326985676) rotate(0 122.80001831054688 57.333424886067746)"><path d="M28.67 0 M28.67 0 C94.22 0.69, 160.7 2.12, 216.93 0 M28.67 0 C89.44 -1.24, 152.82 -1.45, 216.93 0 M216.93 0 C234.95 1.75, 247 8.49, 245.6 28.67 M216.93 0 C238.13 2.09, 245.78 7.5, 245.6 28.67 M245.6 28.67 C245.86 47.56, 243.75 70.77, 245.6 86 M245.6 28.67 C245.57 42.92, 245.66 59.37, 245.6 86 M245.6 86 C244.14 103.93, 237.74 115.01, 216.93 114.67 M245.6 86 C246.79 105.37, 234.68 116.75, 216.93 114.67 M216.93 114.67 C172.99 113.22, 134.56 113.75, 28.67 114.67 M216.93 114.67 C176.46 113.98, 136.39 115.02, 28.67 114.67 M28.67 114.67 C9.66 114.23, -1.69 104.77, 0 86 M28.67 114.67 C8.47 116.93, 0.38 104.92, 0 86 M0 86 C0.47 65.23, 1.16 42.55, 0 28.67 M0 86 C0.96 72.23, 1.16 59.4, 0 28.67 M0 28.67 C1.82 9.18, 10.4 0.93, 28.67 0 M0 28.67 C1.54 8.37, 7.86 -0.46, 28.67 0" stroke="#1e1e1e" stroke-width="1" fill="none"></path></g><g stroke-linecap="round"><g transform="translate(1445.1844955712381 1242.8664143880208) rotate(0 121.50357014834879 -1.350573877850593)"><path d="M-0.52 -0.85 C40.23 -1.08, 202.72 -1.99, 243.53 -2.07 M1.4 1.31 C42.12 0.77, 202.29 -3.28, 242.76 -4.02" stroke="#1e1e1e" stroke-width="1" fill="none"></path></g></g><mask></mask><g transform="translate(1466.7844711571756 1208.476054280599) rotate(0 42.1875 9.600000000000023)"><text x="0" y="0" font-family="Cascadia, Segoe UI Emoji" font-size="16px" fill="#1e1e1e" text-anchor="start" style="white-space: pre;" direction="ltr" dominant-baseline="text-before-edge">Scheduler</text></g><g transform="translate(1459.5844589501444 1256.4664204915364) rotate(0 103.125 19.200000000000045)"><text x="0" y="0" font-family="Cascadia, Segoe UI Emoji" font-size="16px" fill="#1e1e1e" text-anchor="start" style="white-space: pre;" direction="ltr" dominant-baseline="text-before-edge">Minimal interface for</text><text x="0" y="19.2" font-family="Cascadia, Segoe UI Emoji" font-size="16px" fill="#1e1e1e" text-anchor="start" style="white-space: pre;" direction="ltr" dominant-baseline="text-before-edge">multi-threading tasks.</text></g></svg>