<svg version="1.1" xmlns="http://www.w3.org/2000/svg" viewBox="0 0 2074.3250906808034 1182.3333740234368" width="6222.97527204241" height="3547.0001220703107">
  <!-- svg-source:excalidraw -->
  
  <defs>
    <style class="style-fonts">
      @font-face {
        font-family: "Virgil";
        src: url("https://excalidraw.com/Virgil.woff2");
      }
      @font-face {
        font-family: "Cascadia";
        src: url("https://excalidraw.com/Cascadia.woff2");
      }
      @font-face {
        font-family: "Assistant";
        src: url("https://excalidraw.com/Assistant-Regular.woff2");
      }
    </style>
    
  </defs>
  <rect x="0" y="0" width="2074.3250906808034" height="1182.3333740234368" fill="#ffffff"></rect><g stroke-linecap="round" transform="translate(79.11079624720935 87.45087711394791) rotate(0 159.4285801478797 264.500004359654)"><path d="M32 0 C90.76 -2.41, 149.51 -0.89, 286.86 0 M286.86 0 C309.18 1.66, 320.31 10.72, 318.86 32 M318.86 32 C320.41 194.67, 319.99 356.32, 318.86 497 M318.86 497 C319.39 519.13, 306.29 527.03, 286.86 529 M286.86 529 C232.21 526.1, 177.85 526.06, 32 529 M32 529 C11.84 529.04, -0.07 516.56, 0 497 M0 497 C-2.21 312.22, -1.36 127.73, 0 32 M0 32 C-0.51 12.41, 8.83 1.14, 32 0" stroke="#1e1e1e" stroke-width="1.5" fill="none" stroke-dasharray="8 9"></path></g><g stroke-linecap="round" transform="translate(114.12492261614068 133.91521132938448) rotate(0 122.80001831054693 90)"><path d="M32 0 C73.62 1.1, 118.83 0.49, 213.6 0 M32 0 C94.78 0.2, 155.75 1.23, 213.6 0 M213.6 0 C234.69 0.34, 243.97 8.98, 245.6 32 M213.6 0 C234.5 -1.11, 246.61 11.52, 245.6 32 M245.6 32 C244.39 62.37, 247.85 92.22, 245.6 148 M245.6 32 C247.06 67.62, 246.56 101.57, 245.6 148 M245.6 148 C247.03 169.21, 236.66 178.76, 213.6 180 M245.6 148 C243.41 170.9, 235.74 177.8, 213.6 180 M213.6 180 C150.56 179.97, 85.79 179.51, 32 180 M213.6 180 C141.53 181.85, 71.21 180.51, 32 180 M32 180 C10.56 181.37, 0.79 168.33, 0 148 M32 180 C10.9 182.27, 0.37 170.07, 0 148 M0 148 C0.15 113.88, -2.02 74.24, 0 32 M0 148 C1.31 116.74, 1.74 86.87, 0 32 M0 32 C1.49 11.59, 9.15 1.79, 32 0 M0 32 C-1.69 8.58, 11.84 -2.06, 32 0" stroke="#1e1e1e" stroke-width="1" fill="none"></path></g><g stroke-linecap="round"><g transform="translate(115.72495923723443 181.1151930188376) rotate(0 121.60000610351562 -1.1999969482421875)"><path d="M0.3 -0.41 C40.76 -0.96, 202.65 -1.84, 243.13 -2.26 M-1 -1.68 C39.26 -1.49, 201.57 -0.62, 242.14 -0.65" stroke="#1e1e1e" stroke-width="1" fill="none"></path></g></g><mask></mask><g transform="translate(137.32493482317193 146.72483291141572) rotate(0 70 9.599999999999994)"><text x="0" y="15.45" font-family="Cascadia, Segoe UI Emoji" font-size="16px" fill="#1e1e1e" text-anchor="start" style="white-space: pre;" direction="ltr" dominant-baseline="alphabetic">CanonLitManager</text></g><g transform="translate(130.12492261614068 194.71519912235323) rotate(0 112 38.400000000000006)"><text x="0" y="15.45" font-family="Cascadia, Segoe UI Emoji" font-size="16px" fill="#1e1e1e" text-anchor="start" style="white-space: pre;" direction="ltr" dominant-baseline="alphabetic">Load and manage</text><text x="0" y="34.65" font-family="Cascadia, Segoe UI Emoji" font-size="16px" fill="#1e1e1e" text-anchor="start" style="white-space: pre;" direction="ltr" dominant-baseline="alphabetic">canonical literature</text><text x="0" y="53.849999999999994" font-family="Cascadia, Segoe UI Emoji" font-size="16px" fill="#1e1e1e" text-anchor="start" style="white-space: pre;" direction="ltr" dominant-baseline="alphabetic">documents.</text><text x="0" y="73.05" font-family="Cascadia, Segoe UI Emoji" font-size="16px" fill="#1e1e1e" text-anchor="start" style="white-space: pre;" direction="ltr" dominant-baseline="alphabetic">Supports indexed lookup.</text></g><g stroke-linecap="round" transform="translate(114.52501569475396 369.31515944950166) rotate(0 122.80001831054693 97.5)"><path d="M32 0 C69.01 -0.33, 107.42 -0.22, 213.6 0 M32 0 C93.5 -0.96, 154.41 0.27, 213.6 0 M213.6 0 C236.41 -1.99, 246.53 9.7, 245.6 32 M213.6 0 C234.95 0.59, 244.37 11.29, 245.6 32 M245.6 32 C246.92 61.7, 247.2 91.49, 245.6 163 M245.6 32 C245 68.39, 245.31 104.22, 245.6 163 M245.6 163 C245.29 182.57, 233.88 193.54, 213.6 195 M245.6 163 C245.85 184.12, 233.82 193.09, 213.6 195 M213.6 195 C147.39 196.01, 84.75 194.45, 32 195 M213.6 195 C166.82 194.28, 121.67 192.99, 32 195 M32 195 C9.36 196.23, 0.31 185.59, 0 163 M32 195 C10.7 193.74, -1.71 184.17, 0 163 M0 163 C0.82 137.85, 1.06 108.59, 0 32 M0 163 C0.95 115.45, 0.69 68.22, 0 32 M0 32 C-1.09 8.67, 12.45 1.16, 32 0 M0 32 C-1.77 10.44, 9.02 -2.07, 32 0" stroke="#1e1e1e" stroke-width="1" fill="none"></path></g><g stroke-linecap="round"><g transform="translate(116.12505231584771 416.5151411389548) rotate(0 121.60000610351562 -1.1999969482421875)"><path d="M0.29 0.71 C40.8 0.4, 203.12 -1.43, 243.56 -1.95 M-1.01 0.04 C39.32 -0.64, 202.3 -3.65, 242.8 -3.84" stroke="#1e1e1e" stroke-width="1" fill="none"></path></g></g><mask></mask><g transform="translate(137.7250279017852 382.1247810315329) rotate(0 51.33333206176758 9.599999999999994)"><text x="0" y="15.45" font-family="Cascadia, Segoe UI Emoji" font-size="16px" fill="#1e1e1e" text-anchor="start" style="white-space: pre;" direction="ltr" dominant-baseline="alphabetic">CanonLitDoc</text></g><g transform="translate(131.3250034877227 429.1151472424704) rotate(0 93.33333587646484 57.599999999999994)"><text x="0" y="15.45" font-family="Cascadia, Segoe UI Emoji" font-size="16px" fill="#1e1e1e" text-anchor="start" style="white-space: pre;" direction="ltr" dominant-baseline="alphabetic">Parses a pair of</text><text x="0" y="34.65" font-family="Cascadia, Segoe UI Emoji" font-size="16px" fill="#1e1e1e" text-anchor="start" style="white-space: pre;" direction="ltr" dominant-baseline="alphabetic">canonical literature</text><text x="0" y="53.849999999999994" font-family="Cascadia, Segoe UI Emoji" font-size="16px" fill="#1e1e1e" text-anchor="start" style="white-space: pre;" direction="ltr" dominant-baseline="alphabetic">documents. The Latin</text><text x="0" y="73.05" font-family="Cascadia, Segoe UI Emoji" font-size="16px" fill="#1e1e1e" text-anchor="start" style="white-space: pre;" direction="ltr" dominant-baseline="alphabetic">and the English.</text><text x="0" y="92.25" font-family="Cascadia, Segoe UI Emoji" font-size="16px" fill="#1e1e1e" text-anchor="start" style="white-space: pre;" direction="ltr" dominant-baseline="alphabetic">Lookup for sections</text><text x="0" y="111.45" font-family="Cascadia, Segoe UI Emoji" font-size="16px" fill="#1e1e1e" text-anchor="start" style="white-space: pre;" direction="ltr" dominant-baseline="alphabetic">using the BookWorm.</text></g><g transform="translate(185.53934151785677 60.76520642477371) rotate(0 46.91666793823242 12)"><text x="0" y="19.3125" font-family="Cascadia, Segoe UI Emoji" font-size="20px" fill="#1e1e1e" text-anchor="start" style="white-space: pre;" direction="ltr" dominant-baseline="alphabetic">CanonLit</text></g><g stroke-linecap="round"><g transform="translate(233.37216071722605 321.4508596753318) rotate(0 1.1092595867002046 21.142861502511124)"><path d="M-0.34 0.24 C0 7.15, 1.52 34.94, 2 41.93 M0.48 -0.11 C0.74 7.1, 1.15 35.31, 1.46 42.45" stroke="#1e1e1e" stroke-width="4" fill="none"></path></g><g transform="translate(233.37216071722605 321.4508596753318) rotate(0 1.1092595867002046 21.142861502511124)"><path d="M-6.32 22.76 C-3.54 28.1, -2.36 34.79, 1.46 42.45 M-6.32 22.76 C-3.67 28.44, -1.71 34.17, 1.46 42.45" stroke="#1e1e1e" stroke-width="4" fill="none"></path></g><g transform="translate(233.37216071722605 321.4508596753318) rotate(0 1.1092595867002046 21.142861502511124)"><path d="M8.15 22.37 C6.74 27.78, 3.72 34.58, 1.46 42.45 M8.15 22.37 C6.68 28.08, 4.5 33.93, 1.46 42.45" stroke="#1e1e1e" stroke-width="4" fill="none"></path></g></g><mask></mask><g stroke-linecap="round" transform="translate(924.9681832449767 85.65076725066655) rotate(0 161.61907377697173 384.7142551967075)"><path d="M32 0 C123.5 -0.31, 216.28 -0.02, 291.24 0 M291.24 0 C314.12 1.63, 322.68 12.26, 323.24 32 M323.24 32 C322.17 237.76, 321.86 445.44, 323.24 737.43 M323.24 737.43 C322.21 759.36, 311.26 769.66, 291.24 769.43 M291.24 769.43 C215.54 770.2, 140.06 769.18, 32 769.43 M32 769.43 C9.08 770.57, 0.07 757.31, 0 737.43 M0 737.43 C0.31 471.13, 0.43 204.93, 0 32 M0 32 C1.02 10.91, 11.11 -0.47, 32 0" stroke="#1e1e1e" stroke-width="1.5" fill="none" stroke-dasharray="8 9"></path></g><g stroke-linecap="round" transform="translate(964.3822838919493 124.57229293338833) rotate(0 122.80001831054688 89.99999999999997)"><path d="M32 0 C91.92 0.84, 150.01 2.32, 213.6 0 M32 0 C77.31 1.78, 121.85 1.03, 213.6 0 M213.6 0 C235.83 -0.83, 245.14 9.61, 245.6 32 M213.6 0 C235.86 0.2, 245.85 11.59, 245.6 32 M245.6 32 C244.37 61.29, 245.64 93.31, 245.6 148 M245.6 32 C244.56 61.48, 243.71 90.63, 245.6 148 M245.6 148 C245.48 168.26, 234.05 181.43, 213.6 180 M245.6 148 C243.43 168.51, 237.22 182.08, 213.6 180 M213.6 180 C164.87 182.37, 115.54 180.02, 32 180 M213.6 180 C172.03 177.62, 131.68 178.85, 32 180 M32 180 C10.93 178.44, 1.23 167.5, 0 148 M32 180 C11.12 179.42, -0.43 168.14, 0 148 M0 148 C2.42 114.91, -0.9 79.31, 0 32 M0 148 C0.62 122.05, 0.39 95.64, 0 32 M0 32 C-1.21 9.71, 12.66 -1.66, 32 0 M0 32 C0.17 12.78, 11.92 -1.07, 32 0" stroke="#1e1e1e" stroke-width="1" fill="none"></path></g><g stroke-linecap="round"><g transform="translate(965.9823205130431 171.77227462284145) rotate(0 121.60000610351562 -1.1999969482421875)"><path d="M-0.58 0.01 C40.2 -0.59, 202.82 -2.5, 243.51 -3.04 M1.32 -1.03 C42.07 -1.53, 202.45 -1.62, 242.72 -1.84" stroke="#1e1e1e" stroke-width="1" fill="none"></path></g></g><mask></mask><g transform="translate(987.5822960989806 137.38191451541957) rotate(0 79.33333587646484 9.600000000000001)"><text x="0" y="15.45" font-family="Cascadia, Segoe UI Emoji" font-size="16px" fill="#1e1e1e" text-anchor="start" style="white-space: pre;" direction="ltr" dominant-baseline="alphabetic">LemmatizedManager</text></g><g transform="translate(980.3822838919493 185.37228072635708) rotate(0 112 38.400000000000006)"><text x="0" y="15.45" font-family="Cascadia, Segoe UI Emoji" font-size="16px" fill="#1e1e1e" text-anchor="start" style="white-space: pre;" direction="ltr" dominant-baseline="alphabetic">Load and manage</text><text x="0" y="34.65" font-family="Cascadia, Segoe UI Emoji" font-size="16px" fill="#1e1e1e" text-anchor="start" style="white-space: pre;" direction="ltr" dominant-baseline="alphabetic">lemmatized Latin</text><text x="0" y="53.849999999999994" font-family="Cascadia, Segoe UI Emoji" font-size="16px" fill="#1e1e1e" text-anchor="start" style="white-space: pre;" direction="ltr" dominant-baseline="alphabetic">documents.</text><text x="0" y="73.05" font-family="Cascadia, Segoe UI Emoji" font-size="16px" fill="#1e1e1e" text-anchor="start" style="white-space: pre;" direction="ltr" dominant-baseline="alphabetic">Supports indexed lookup.</text></g><g stroke-linecap="round" transform="translate(965.5966175624292 369.5079400804306) rotate(0 122.80001831054688 90)"><path d="M32 0 C95.35 -1.16, 159.02 -1.69, 213.6 0 M32 0 C85.53 -0.05, 140.1 -0.65, 213.6 0 M213.6 0 C234.81 -0.36, 246.23 11.27, 245.6 32 M213.6 0 C234.26 -1.01, 243.59 11.92, 245.6 32 M245.6 32 C243.32 56.76, 243.83 79.6, 245.6 148 M245.6 32 C246.63 69.79, 246.01 110.1, 245.6 148 M245.6 148 C247 169.65, 236.09 180.65, 213.6 180 M245.6 148 C243.72 167.69, 236.97 181.97, 213.6 180 M213.6 180 C172.97 177.22, 130.07 179.57, 32 180 M213.6 180 C142.97 180.94, 72.5 181.67, 32 180 M32 180 C8.8 181.81, 1.72 167.88, 0 148 M32 180 C10.28 177.95, -0.8 168.68, 0 148 M0 148 C1.66 114.36, -0.77 81.2, 0 32 M0 148 C-1.12 122.27, 0.08 95.53, 0 32 M0 32 C-0.98 11.58, 10.18 1.1, 32 0 M0 32 C0.82 12.95, 8.78 0.35, 32 0" stroke="#1e1e1e" stroke-width="1" fill="none"></path></g><g stroke-linecap="round"><g transform="translate(967.1966541835229 416.70792176988374) rotate(0 121.60000610351562 -1.1999969482421875)"><path d="M-0.41 -0.53 C39.95 -0.88, 201.95 -2.23, 242.47 -2.46 M1.57 1.81 C42.29 1.69, 204.78 0.01, 244.8 -0.95" stroke="#1e1e1e" stroke-width="1" fill="none"></path></g></g><mask></mask><g transform="translate(988.7966297694604 382.31756166246186) rotate(0 60.66666793823242 9.599999999999994)"><text x="0" y="15.45" font-family="Cascadia, Segoe UI Emoji" font-size="16px" fill="#1e1e1e" text-anchor="start" style="white-space: pre;" direction="ltr" dominant-baseline="alphabetic">LemmatizedDoc</text></g><g transform="translate(981.5966175624292 430.30792787339936) rotate(0 88.66666412353516 38.400000000000006)"><text x="0" y="15.45" font-family="Cascadia, Segoe UI Emoji" font-size="16px" fill="#1e1e1e" text-anchor="start" style="white-space: pre;" direction="ltr" dominant-baseline="alphabetic">Parses a lemmatized</text><text x="0" y="34.65" font-family="Cascadia, Segoe UI Emoji" font-size="16px" fill="#1e1e1e" text-anchor="start" style="white-space: pre;" direction="ltr" dominant-baseline="alphabetic">Latin document.</text><text x="0" y="53.849999999999994" font-family="Cascadia, Segoe UI Emoji" font-size="16px" fill="#1e1e1e" text-anchor="start" style="white-space: pre;" direction="ltr" dominant-baseline="alphabetic">Lookup for tokens</text><text x="0" y="73.05" font-family="Cascadia, Segoe UI Emoji" font-size="16px" fill="#1e1e1e" text-anchor="start" style="white-space: pre;" direction="ltr" dominant-baseline="alphabetic">using the BookWorm.</text></g><g stroke-linecap="round" transform="translate(965.2037756783614 614.8292362273687) rotate(0 122.80001831054688 90)"><path d="M32 0 C100.88 -1.9, 166.01 -1.4, 213.6 0 M32 0 C101.99 -0.64, 171.35 -0.13, 213.6 0 M213.6 0 C233.38 -1.1, 245.65 9.35, 245.6 32 M213.6 0 C233.86 1.08, 247.26 9.06, 245.6 32 M245.6 32 C247.68 55.76, 246.17 78.7, 245.6 148 M245.6 32 C243.84 66.56, 243.71 101.01, 245.6 148 M245.6 148 C246.36 171.05, 236.01 181.27, 213.6 180 M245.6 148 C245.06 168.17, 233.57 179.53, 213.6 180 M213.6 180 C177.67 181.23, 140.26 181.34, 32 180 M213.6 180 C147.43 180.62, 81.7 180.75, 32 180 M32 180 C11.93 178.41, 1.56 170.64, 0 148 M32 180 C10.91 181.63, 0.57 169.8, 0 148 M0 148 C-0.2 116.14, -2.45 84.41, 0 32 M0 148 C-1.74 117.48, -1.3 86.75, 0 32 M0 32 C-0.28 10.6, 10.17 1.8, 32 0 M0 32 C1.51 8.73, 9.3 -0.8, 32 0" stroke="#1e1e1e" stroke-width="1" fill="none"></path></g><g stroke-linecap="round"><g transform="translate(966.8038122994551 662.0292179168218) rotate(0 121.60000610351562 -1.1999969482421875)"><path d="M-0.92 -0.83 C39.47 -1.18, 202.08 -1.19, 242.58 -1.41 M0.79 1.35 C41.56 0.62, 204.37 -2.67, 244.96 -3.02" stroke="#1e1e1e" stroke-width="1" fill="none"></path></g></g><mask></mask><g transform="translate(988.4037878853926 627.6388578093997) rotate(0 70 9.600000000000023)"><text x="0" y="15.45" font-family="Cascadia, Segoe UI Emoji" font-size="16px" fill="#1e1e1e" text-anchor="start" style="white-space: pre;" direction="ltr" dominant-baseline="alphabetic">LemmatizedToken</text></g><g transform="translate(981.2037756783614 675.6292240203375) rotate(0 107.33333587646484 38.39999999999998)"><text x="0" y="15.45" font-family="Cascadia, Segoe UI Emoji" font-size="16px" fill="#1e1e1e" text-anchor="start" style="white-space: pre;" direction="ltr" dominant-baseline="alphabetic">A token (mostly a word)</text><text x="0" y="34.65" font-family="Cascadia, Segoe UI Emoji" font-size="16px" fill="#1e1e1e" text-anchor="start" style="white-space: pre;" direction="ltr" dominant-baseline="alphabetic">in the lemmatized text</text><text x="0" y="53.849999999999994" font-family="Cascadia, Segoe UI Emoji" font-size="16px" fill="#1e1e1e" text-anchor="start" style="white-space: pre;" direction="ltr" dominant-baseline="alphabetic">that is fully analysed:</text><text x="0" y="73.05" font-family="Cascadia, Segoe UI Emoji" font-size="16px" fill="#1e1e1e" text-anchor="start" style="white-space: pre;" direction="ltr" dominant-baseline="alphabetic">case, voice, etc.</text></g><g transform="translate(1029.807312011718 59.36507476322237) rotate(0 58.64583206176758 12)"><text x="0" y="19.3125" font-family="Cascadia, Segoe UI Emoji" font-size="20px" fill="#1e1e1e" text-anchor="start" style="white-space: pre;" direction="ltr" dominant-baseline="alphabetic">Lemmatized</text></g><g stroke-linecap="round"><g transform="translate(1081.7719791435536 308.5079319060795) rotate(0 -0.4725018616413763 26.999982561383888)"><path d="M0.11 0.51 C-0.23 9.79, -1.35 45.74, -1.72 54.49 M-1.29 -0.26 C-1.28 8.76, 0.34 43.61, 0.58 52.63" stroke="#1e1e1e" stroke-width="4" fill="none"></path></g><g transform="translate(1081.7719791435536 308.5079319060795) rotate(0 -0.4725018616413763 26.999982561383888)"><path d="M-8.84 29.47 C-5.1 35.82, -2.02 42.83, 0.58 52.63 M-8.84 29.47 C-6.88 35.41, -4.26 40.59, 0.58 52.63" stroke="#1e1e1e" stroke-width="4" fill="none"></path></g><g transform="translate(1081.7719791435536 308.5079319060795) rotate(0 -0.4725018616413763 26.999982561383888)"><path d="M8.25 28.84 C6.34 35.41, 3.77 42.63, 0.58 52.63 M8.25 28.84 C6.47 34.82, 5.35 40.14, 0.58 52.63" stroke="#1e1e1e" stroke-width="4" fill="none"></path></g></g><mask></mask><g stroke-linecap="round"><g transform="translate(1082.0874894118526 554.5079319060794) rotate(0 0.5023336733373753 28.428567068917403)"><path d="M-0.66 -0.15 C-0.51 9.27, 1 47.36, 1.29 57.05 M1.19 -1.27 C1.17 7.7, 0.63 45.44, 0.5 55.04" stroke="#1e1e1e" stroke-width="4" fill="none"></path></g><g transform="translate(1082.0874894118526 554.5079319060794) rotate(0 0.5023336733373753 28.428567068917403)"><path d="M-7.73 31.43 C-5.13 39.82, -1.81 47.4, 0.5 55.04 M-7.73 31.43 C-4.91 41.73, -1.08 49.25, 0.5 55.04" stroke="#1e1e1e" stroke-width="4" fill="none"></path></g><g transform="translate(1082.0874894118526 554.5079319060794) rotate(0 0.5023336733373753 28.428567068917403)"><path d="M9.37 31.66 C6.28 39.88, 3.9 47.38, 0.5 55.04 M9.37 31.66 C5.38 42, 2.41 49.43, 0.5 55.04" stroke="#1e1e1e" stroke-width="4" fill="none"></path></g></g><mask></mask><g stroke-linecap="round" transform="translate(457.31095668247724 89.07947818816672) rotate(0 197.14285714285705 250.28569902692524)"><path d="M32 0 C162.79 1.34, 291.01 -0.46, 362.29 0 M362.29 0 C382.03 -0.19, 393.3 12.56, 394.29 32 M394.29 32 C395.58 198.44, 396.26 364.48, 394.29 468.57 M394.29 468.57 C394.57 488.08, 383.15 500.24, 362.29 500.57 M362.29 500.57 C262.94 502.31, 166.27 502.06, 32 500.57 M32 500.57 C12.2 498.58, -0.75 489.37, 0 468.57 M0 468.57 C0.77 326.16, 0.58 182.49, 0 32 M0 32 C1.48 12.65, 9.27 1.94, 32 0" stroke="#1e1e1e" stroke-width="1.5" fill="none" stroke-dasharray="8 9"></path></g><g stroke-linecap="round" transform="translate(526.7247761317657 365.68673276144375) rotate(0 125.30001831054693 91.83224728379926)"><path d="M32 0 C94.13 2.68, 156.19 0.45, 218.6 0 M32 0 C71.13 -1.06, 109.44 -0.89, 218.6 0 M218.6 0 C238.3 -1.43, 252.37 12.38, 250.6 32 M218.6 0 C238.37 -0.17, 249.48 12.42, 250.6 32 M250.6 32 C252.87 54.96, 252.71 81.47, 250.6 151.66 M250.6 32 C250.37 62.16, 252.17 89.79, 250.6 151.66 M250.6 151.66 C250.26 171.22, 239.23 183.09, 218.6 183.66 M250.6 151.66 C250.49 173.52, 238.76 185.87, 218.6 183.66 M218.6 183.66 C155.61 185.57, 94.45 183.39, 32 183.66 M218.6 183.66 C147.07 185.23, 76.28 185.33, 32 183.66 M32 183.66 C11.38 185.65, -1.64 173.3, 0 151.66 M32 183.66 C10.13 183.71, -1.12 174.23, 0 151.66 M0 151.66 C-0.83 107.06, -1.07 62.58, 0 32 M0 151.66 C-1.6 117.77, -1.58 84.49, 0 32 M0 32 C0.87 10.59, 12.39 0.23, 32 0 M0 32 C1.95 12.26, 11.41 -0.31, 32 0" stroke="#1e1e1e" stroke-width="1" fill="none"></path></g><g stroke-linecap="round"><g transform="translate(528.3573867834481 413.84762598696216) rotate(0 124.07557589121717 -1.2244268498975543)"><path d="M1.19 0.77 C42.6 0.11, 207 -3.17, 248.01 -3.58 M0.36 0.13 C41.63 -0.47, 205.43 -2.01, 246.98 -2.63" stroke="#1e1e1e" stroke-width="1" fill="none"></path></g></g><mask></mask><g transform="translate(549.9247883387969 383.4964306374203) rotate(0 60.66666793823242 9.599999999999994)"><text x="0" y="15.45" font-family="Cascadia, Segoe UI Emoji" font-size="16px" fill="#1e1e1e" text-anchor="start" style="white-space: pre;" direction="ltr" dominant-baseline="alphabetic">WhitakerEntry</text></g><g transform="translate(547.7246998378204 431.4868731423031) rotate(0 98 48)"><text x="0" y="15.45" font-family="Cascadia, Segoe UI Emoji" font-size="16px" fill="#1e1e1e" text-anchor="start" style="white-space: pre;" direction="ltr" dominant-baseline="alphabetic">Contains a parsed</text><text x="0" y="34.65" font-family="Cascadia, Segoe UI Emoji" font-size="16px" fill="#1e1e1e" text-anchor="start" style="white-space: pre;" direction="ltr" dominant-baseline="alphabetic">Whitaker's WORD entry</text><text x="0" y="53.849999999999994" font-family="Cascadia, Segoe UI Emoji" font-size="16px" fill="#1e1e1e" text-anchor="start" style="white-space: pre;" direction="ltr" dominant-baseline="alphabetic">and information that</text><text x="0" y="73.05" font-family="Cascadia, Segoe UI Emoji" font-size="16px" fill="#1e1e1e" text-anchor="start" style="white-space: pre;" direction="ltr" dominant-baseline="alphabetic">helps user-friendly</text><text x="0" y="92.25" font-family="Cascadia, Segoe UI Emoji" font-size="16px" fill="#1e1e1e" text-anchor="start" style="white-space: pre;" direction="ltr" dominant-baseline="alphabetic">representation.</text></g><g stroke-linecap="round" transform="translate(489.7251717703681 118.10436068254825) rotate(0 161.28488803116062 97.26555024747927)"><path d="M32 0 C101.68 1.65, 170.51 -0.34, 290.57 0 M32 0 C86.57 0.14, 141.14 0.38, 290.57 0 M290.57 0 C313.72 -0.13, 322.08 12.55, 322.57 32 M290.57 0 C312.11 -1.08, 324.54 9.88, 322.57 32 M322.57 32 C321.05 74.66, 320.84 118.95, 322.57 162.53 M322.57 32 C321.85 80.7, 320.57 127.1, 322.57 162.53 M322.57 162.53 C324.53 184.16, 311.4 194.8, 290.57 194.53 M322.57 162.53 C324.52 183.33, 310.69 196.21, 290.57 194.53 M290.57 194.53 C214.36 194.03, 134.46 196.33, 32 194.53 M290.57 194.53 C220.2 196.22, 149 196.69, 32 194.53 M32 194.53 C11.97 196.41, 1.26 184.33, 0 162.53 M32 194.53 C9.68 196.29, -1.08 185.86, 0 162.53 M0 162.53 C0.6 117.56, 1.58 71.4, 0 32 M0 162.53 C-1.37 115.65, -1.12 68.53, 0 32 M0 32 C1.48 10.27, 11.87 0.89, 32 0 M0 32 C-1.39 11.65, 9.77 1.43, 32 0" stroke="#1e1e1e" stroke-width="1" fill="none"></path></g><g stroke-linecap="round"><g transform="translate(491.4543766855551 169.11471835694385) rotate(0 157.13085797823334 0.41741064945313155)"><path d="M0.45 -1.09 C52.75 -1.09, 260.81 -0.51, 313.23 -0.23 M-0.78 0.95 C51.94 1.08, 262.84 0.62, 315.4 0.75" stroke="#1e1e1e" stroke-width="1" fill="none"></path></g></g><mask></mask><g transform="translate(512.9251839773993 135.9140585585248) rotate(0 70 9.600000000000001)"><text x="0" y="15.45" font-family="Cascadia, Segoe UI Emoji" font-size="16px" fill="#1e1e1e" text-anchor="start" style="white-space: pre;" direction="ltr" dominant-baseline="alphabetic">WhitakerManager</text></g><g transform="translate(510.7250954764228 183.90450106340762) rotate(0 135.33332824707037 48)"><text x="0" y="15.45" font-family="Cascadia, Segoe UI Emoji" font-size="16px" fill="#1e1e1e" text-anchor="start" style="white-space: pre;" direction="ltr" dominant-baseline="alphabetic">Spawns processes of the</text><text x="0" y="34.65" font-family="Cascadia, Segoe UI Emoji" font-size="16px" fill="#1e1e1e" text-anchor="start" style="white-space: pre;" direction="ltr" dominant-baseline="alphabetic">Whitaker's WORD Latin dictio-</text><text x="0" y="53.849999999999994" font-family="Cascadia, Segoe UI Emoji" font-size="16px" fill="#1e1e1e" text-anchor="start" style="white-space: pre;" direction="ltr" dominant-baseline="alphabetic">nary to look up large amounts</text><text x="0" y="73.05" font-family="Cascadia, Segoe UI Emoji" font-size="16px" fill="#1e1e1e" text-anchor="start" style="white-space: pre;" direction="ltr" dominant-baseline="alphabetic">of words.</text><text x="0" y="92.25" font-family="Cascadia, Segoe UI Emoji" font-size="16px" fill="#1e1e1e" text-anchor="start" style="white-space: pre;" direction="ltr" dominant-baseline="alphabetic">Supports indexed lookup.</text></g><g transform="translate(597.5744541713165 65.07937791612429) rotate(0 46.91666793823242 12)"><text x="0" y="19.3125" font-family="Cascadia, Segoe UI Emoji" font-size="20px" fill="#1e1e1e" text-anchor="start" style="white-space: pre;" direction="ltr" dominant-baseline="alphabetic">Whitaker</text></g><g stroke-linecap="round"><g transform="translate(647.0253121512272 317.6508849613252) rotate(0 0.5713762555802759 22.85714285714286)"><path d="M0.41 -0.02 C0.52 7.68, 0.55 38.54, 0.77 46.13 M-0.04 -0.5 C0.23 7.05, 1.53 37.63, 1.81 45.38" stroke="#1e1e1e" stroke-width="4" fill="none"></path></g><g transform="translate(647.0253121512272 317.6508849613252) rotate(0 0.5713762555802759 22.85714285714286)"><path d="M-6.86 24.22 C-4.1 30.32, -0.52 38.81, 1.81 45.38 M-6.86 24.22 C-4.93 29.63, -2.37 35.23, 1.81 45.38" stroke="#1e1e1e" stroke-width="4" fill="none"></path></g><g transform="translate(647.0253121512272 317.6508849613252) rotate(0 0.5713762555802759 22.85714285714286)"><path d="M8.77 23.6 C6.49 29.96, 5.03 38.65, 1.81 45.38 M8.77 23.6 C6.63 29.25, 5.11 35.01, 1.81 45.38" stroke="#1e1e1e" stroke-width="4" fill="none"></path></g></g><mask></mask><g stroke-linecap="round" transform="translate(90.71574474516365 721.6184307280041) rotate(0 351.428567068917 197.085695539202)"><path d="M32 0 C257.27 0.12, 481.92 -0.9, 670.86 0 M670.86 0 C691.76 -0.95, 702.88 8.99, 702.86 32 M702.86 32 C705.16 103.95, 704.4 177.92, 702.86 362.17 M702.86 362.17 C702.78 382.57, 692.42 396.1, 670.86 394.17 M670.86 394.17 C533.93 395.12, 398.25 394.49, 32 394.17 M32 394.17 C9.5 392.6, -1.33 384.24, 0 362.17 M0 362.17 C1.16 238.65, 0.95 116.9, 0 32 M0 32 C1.62 11.83, 12.64 -0.9, 32 0" stroke="#1e1e1e" stroke-width="1.5" fill="none" stroke-dasharray="8 9"></path></g><g transform="translate(385.3138941204734 691.0215778653585) rotate(0 23.45833396911621 12)"><text x="0" y="19.3125" font-family="Cascadia, Segoe UI Emoji" font-size="20px" fill="#1e1e1e" text-anchor="start" style="white-space: pre;" direction="ltr" dominant-baseline="alphabetic">Page</text></g><g stroke-linecap="round" transform="translate(153.64443933396092 758.3756535847981) rotate(0 129.29999542236328 60.21428244454523)"><path d="M30.11 0 C105.61 -0.87, 178.21 0.92, 228.49 0 M30.11 0 C80.66 0.63, 129.13 0.53, 228.49 0 M228.49 0 C248.43 -0.37, 260.03 8.83, 258.6 30.11 M228.49 0 C247.33 -1.15, 258.05 8.13, 258.6 30.11 M258.6 30.11 C257.52 48.23, 259.42 69.58, 258.6 90.32 M258.6 30.11 C258.13 42.76, 257.49 57.65, 258.6 90.32 M258.6 90.32 C257.13 111.1, 248.51 121.08, 228.49 120.43 M258.6 90.32 C256.5 112.66, 248.65 118.8, 228.49 120.43 M228.49 120.43 C170.16 123.48, 112.65 121.44, 30.11 120.43 M228.49 120.43 C183.99 121.21, 139.55 121.16, 30.11 120.43 M30.11 120.43 C11.34 119.9, 1.14 110.48, 0 90.32 M30.11 120.43 C10.59 120.92, -0.34 112.03, 0 90.32 M0 90.32 C-1.57 67.9, -1.15 42.07, 0 30.11 M0 90.32 C-0.96 73.89, 0.34 57.96, 0 30.11 M0 30.11 C-0.52 9.98, 12.02 0.68, 30.11 0 M0 30.11 C-1.79 8.43, 8.38 -1.36, 30.11 0" stroke="#1e1e1e" stroke-width="1" fill="none"></path></g><g stroke-linecap="round"><g transform="translate(155.24447595505467 805.5756352742512) rotate(0 126.60000610351562 -1.1999969482421875)"><path d="M-0.05 -0.37 C42.24 -0.98, 211.94 -2.67, 254.22 -2.98 M-1.54 -1.61 C40.64 -2.13, 211.38 -1.87, 253.81 -1.75" stroke="#1e1e1e" stroke-width="1" fill="none"></path></g></g><mask></mask><g transform="translate(176.84445154099217 771.1852751668296) rotate(0 51.33333206176758 9.600000000000023)"><text x="0" y="15.45" font-family="Cascadia, Segoe UI Emoji" font-size="16px" fill="#1e1e1e" text-anchor="start" style="white-space: pre;" direction="ltr" dominant-baseline="alphabetic">PageManager</text></g><g transform="translate(169.64443933396092 819.1756413777669) rotate(0 102.66666412353516 19.19999999999999)"><text x="0" y="15.45" font-family="Cascadia, Segoe UI Emoji" font-size="16px" fill="#1e1e1e" text-anchor="start" style="white-space: pre;" direction="ltr" dominant-baseline="alphabetic">Generation and storage</text><text x="0" y="34.65" font-family="Cascadia, Segoe UI Emoji" font-size="16px" fill="#1e1e1e" text-anchor="start" style="white-space: pre;" direction="ltr" dominant-baseline="alphabetic">of pages.</text></g><g stroke-linecap="round" transform="translate(493.7301937284917 755.5184191749215) rotate(0 129.29999542236328 57.35713958740229)"><path d="M28.68 0 C92.64 -1.55, 156.39 -1.07, 229.92 0 M28.68 0 C74.32 1.2, 120.19 2.32, 229.92 0 M229.92 0 C249.21 -0.84, 257.77 10.65, 258.6 28.68 M229.92 0 C249.91 1.12, 260.59 9.03, 258.6 28.68 M258.6 28.68 C260.24 47.47, 260.56 67.66, 258.6 86.04 M258.6 28.68 C259.2 41.17, 257.89 52.9, 258.6 86.04 M258.6 86.04 C259.12 105.84, 248.8 115.29, 229.92 114.71 M258.6 86.04 C257.36 103.29, 248.83 112.8, 229.92 114.71 M229.92 114.71 C153.86 116.42, 77.53 115.81, 28.68 114.71 M229.92 114.71 C184.43 114.14, 141.16 115.12, 28.68 114.71 M28.68 114.71 C8.62 115.86, 0.34 104.82, 0 86.04 M28.68 114.71 C10.86 115.46, 0.09 106.36, 0 86.04 M0 86.04 C-0.51 73.34, 0.38 58.58, 0 28.68 M0 86.04 C-0.53 75.19, -0.55 62.49, 0 28.68 M0 28.68 C0.72 9.79, 7.91 -0.18, 28.68 0 M0 28.68 C1.47 7.37, 8.15 -0.15, 28.68 0" stroke="#1e1e1e" stroke-width="1" fill="none"></path></g><g stroke-linecap="round"><g transform="translate(495.33023034958546 802.7184008643746) rotate(0 126.60000610351562 -1.1999969482421875)"><path d="M-0.26 -0.01 C41.82 -0.57, 210.88 -2.7, 253.26 -3.28 M1.81 -1.06 C43.67 -1.5, 210.36 -1.92, 252.35 -2.2" stroke="#1e1e1e" stroke-width="1" fill="none"></path></g></g><mask></mask><g transform="translate(516.930205935523 768.328040756953) rotate(0 18.66666603088379 9.600000000000023)"><text x="0" y="15.45" font-family="Cascadia, Segoe UI Emoji" font-size="16px" fill="#1e1e1e" text-anchor="start" style="white-space: pre;" direction="ltr" dominant-baseline="alphabetic">Page</text></g><g transform="translate(509.7301937284917 816.3184069678903) rotate(0 98 19.19999999999999)"><text x="0" y="15.45" font-family="Cascadia, Segoe UI Emoji" font-size="16px" fill="#1e1e1e" text-anchor="start" style="white-space: pre;" direction="ltr" dominant-baseline="alphabetic">Provides data for the</text><text x="0" y="34.65" font-family="Cascadia, Segoe UI Emoji" font-size="16px" fill="#1e1e1e" text-anchor="start" style="white-space: pre;" direction="ltr" dominant-baseline="alphabetic">Handlebars templates.</text></g><g stroke-linecap="round"><g transform="translate(416.6587008521667 822.4387308701823) rotate(0 36.885711669921534 -0.45289953641287184)"><path d="M-0.41 -1.14 C11.74 -1.2, 60.67 -1.66, 73.19 -1.45 M1.57 0.87 C14.09 1.07, 63.45 0.23, 75.59 -0.19" stroke="#1e1e1e" stroke-width="4" fill="none"></path></g><g transform="translate(416.6587008521667 822.4387308701823) rotate(0 36.885711669921534 -0.45289953641287184)"><path d="M52.31 8.92 C58.08 5.05, 66.67 4.58, 75.59 -0.19 M52.31 8.92 C60.91 5.82, 71.19 2.81, 75.59 -0.19" stroke="#1e1e1e" stroke-width="4" fill="none"></path></g><g transform="translate(416.6587008521667 822.4387308701823) rotate(0 36.885711669921534 -0.45289953641287184)"><path d="M51.9 -8.18 C57.64 -6.47, 66.37 -1.36, 75.59 -0.19 M51.9 -8.18 C60.59 -4.71, 71.03 -1.15, 75.59 -0.19" stroke="#1e1e1e" stroke-width="4" fill="none"></path></g></g><mask></mask><g stroke-linecap="round" transform="translate(487.0251301356718 959.5754652477447) rotate(0 129.29999542236328 57.35713958740229)"><path d="M28.68 0 C71.42 -0.61, 112.62 -0.7, 229.92 0 M28.68 0 C97.45 2, 166.54 2.16, 229.92 0 M229.92 0 C247.48 0.13, 260.27 11.14, 258.6 28.68 M229.92 0 C250.6 0.17, 259.68 8.38, 258.6 28.68 M258.6 28.68 C259.16 45.49, 256.44 62.92, 258.6 86.04 M258.6 28.68 C258.61 47.36, 258.6 65.21, 258.6 86.04 M258.6 86.04 C256.67 105.98, 247.11 113.53, 229.92 114.71 M258.6 86.04 C256.31 106.07, 250.12 113.21, 229.92 114.71 M229.92 114.71 C179.37 115.14, 129.58 116.72, 28.68 114.71 M229.92 114.71 C158.75 113.79, 88.9 112.13, 28.68 114.71 M28.68 114.71 C8.17 113.56, 1.32 103.22, 0 86.04 M28.68 114.71 C9.17 114.78, -2.27 104.93, 0 86.04 M0 86.04 C-0.82 72.97, -0.18 58.17, 0 28.68 M0 86.04 C-0.39 66.74, -0.72 46.37, 0 28.68 M0 28.68 C0.99 10.57, 8.31 1.09, 28.68 0 M0 28.68 C-0.82 8.91, 7.33 0.34, 28.68 0" stroke="#1e1e1e" stroke-width="1" fill="none"></path></g><g stroke-linecap="round"><g transform="translate(488.62516675676557 1006.7754469371978) rotate(0 126.60000610351562 -1.1999969482421875)"><path d="M-1 0.26 C41.12 -0.16, 209.94 -1.3, 252.14 -1.89 M0.68 -0.65 C43.21 -1.49, 211.97 -3.45, 254.3 -3.75" stroke="#1e1e1e" stroke-width="1" fill="none"></path></g></g><mask></mask><g transform="translate(510.22514234270307 972.3850868297761) rotate(0 51.33333206176758 9.600000000000023)"><text x="0" y="15.45" font-family="Cascadia, Segoe UI Emoji" font-size="16px" fill="#1e1e1e" text-anchor="start" style="white-space: pre;" direction="ltr" dominant-baseline="alphabetic">PageSection</text></g><g transform="translate(503.0251301356718 1020.3754530407134) rotate(0 88.66666412353516 19.19999999999999)"><text x="0" y="15.45" font-family="Cascadia, Segoe UI Emoji" font-size="16px" fill="#1e1e1e" text-anchor="start" style="white-space: pre;" direction="ltr" dominant-baseline="alphabetic">Joins data from all</text><text x="0" y="34.65" font-family="Cascadia, Segoe UI Emoji" font-size="16px" fill="#1e1e1e" text-anchor="start" style="white-space: pre;" direction="ltr" dominant-baseline="alphabetic">section types.</text></g><g stroke-linecap="round" transform="translate(149.5966023036408 960.0040366763158) rotate(0 129.29999542236328 57.35713958740229)"><path d="M28.68 0 C89.01 -1.02, 147.78 -0.95, 229.92 0 M28.68 0 C107.14 1.76, 184.25 0.62, 229.92 0 M229.92 0 C247.3 -1.89, 257.24 9.1, 258.6 28.68 M229.92 0 C248.03 -1.39, 259.86 11.65, 258.6 28.68 M258.6 28.68 C260.61 44.54, 260.62 65.44, 258.6 86.04 M258.6 28.68 C258.33 47.78, 258.95 64.39, 258.6 86.04 M258.6 86.04 C260.41 103.54, 250.45 113.75, 229.92 114.71 M258.6 86.04 C257.73 107.42, 248.79 112.93, 229.92 114.71 M229.92 114.71 C180.69 116.18, 128.46 114.81, 28.68 114.71 M229.92 114.71 C184.78 114.78, 139.24 115.44, 28.68 114.71 M28.68 114.71 C9.52 115.08, -1.74 103.26, 0 86.04 M28.68 114.71 C9.13 114.76, 1.58 106.26, 0 86.04 M0 86.04 C0.97 64.14, 0.47 42.15, 0 28.68 M0 86.04 C0.28 67.49, 0.82 50.59, 0 28.68 M0 28.68 C0.11 8.14, 8.07 -1.23, 28.68 0 M0 28.68 C-1.43 8.68, 10.42 0.64, 28.68 0" stroke="#1e1e1e" stroke-width="1" fill="none"></path></g><g stroke-linecap="round"><g transform="translate(151.19663892473454 1007.2040183657689) rotate(0 126.60000610351562 -1.1999969482421875)"><path d="M-0.57 -0.66 C41.52 -0.92, 210.48 -0.95, 252.68 -1.35 M1.33 1.6 C43.21 1.01, 209.75 -2.31, 251.46 -2.92" stroke="#1e1e1e" stroke-width="1" fill="none"></path></g></g><mask></mask><g transform="translate(172.79661451067204 972.8136582583472) rotate(0 42 9.600000000000023)"><text x="0" y="15.45" font-family="Cascadia, Segoe UI Emoji" font-size="16px" fill="#1e1e1e" text-anchor="start" style="white-space: pre;" direction="ltr" dominant-baseline="alphabetic">PageToken</text></g><g transform="translate(165.5966023036408 1020.8040244692845) rotate(0 98 19.19999999999999)"><text x="0" y="15.45" font-family="Cascadia, Segoe UI Emoji" font-size="16px" fill="#1e1e1e" text-anchor="start" style="white-space: pre;" direction="ltr" dominant-baseline="alphabetic">CSS classes and other</text><text x="0" y="34.65" font-family="Cascadia, Segoe UI Emoji" font-size="16px" fill="#1e1e1e" text-anchor="start" style="white-space: pre;" direction="ltr" dominant-baseline="alphabetic">display-related info.</text></g><g stroke-linecap="round" transform="translate(1392.3254975818447 41.02790941510915) rotate(0 335.99979654947924 497.499921162923)"><path d="M32 0 C177.28 2.31, 323.3 2.5, 640 0 M640 0 C660.31 -1.07, 671.54 10.26, 672 32 M672 32 C670.71 268.04, 669.84 505.88, 672 963 M672 963 C670.36 985.12, 662.43 996.07, 640 995 M640 995 C512.79 995.15, 385.65 993.91, 32 995 M32 995 C12.52 993.33, 1.25 982.92, 0 963 M0 963 C3.81 625.1, 3.08 287.08, 0 32 M0 32 C1.68 12.62, 9.2 1.61, 32 0" stroke="#1e1e1e" stroke-width="1.5" fill="none" stroke-dasharray="8 9"></path></g><g transform="translate(1518.545212518601 16.265858968099124) rotate(0 41.05208206176758 12)"><text x="0" y="19.3125" font-family="Cascadia, Segoe UI Emoji" font-size="20px" fill="#1e1e1e" text-anchor="start" style="white-space: pre;" direction="ltr" dominant-baseline="alphabetic">Utility</text></g><g stroke-linecap="round"><g transform="translate(233.640038995974 718.0635734437003) rotate(0 1.148738100061479 -48.55556911892353)"><path d="M-0.76 -0.43 C-0.52 -16.61, 1.37 -82.09, 1.71 -98.22 M1.04 -1.71 C1.66 -17.67, 3.68 -81.55, 4.12 -97.27" stroke="#1e1e1e" stroke-width="4" fill="none"></path></g><g transform="translate(233.640038995974 718.0635734437003) rotate(0 1.148738100061479 -48.55556911892353)"><path d="M11.96 -73.53 C8.93 -82.24, 5.26 -90.61, 4.12 -97.27 M11.96 -73.53 C9.55 -81.15, 8.42 -87.33, 4.12 -97.27" stroke="#1e1e1e" stroke-width="4" fill="none"></path></g><g transform="translate(233.640038995974 718.0635734437003) rotate(0 1.148738100061479 -48.55556911892353)"><path d="M-5.14 -74.05 C-2.64 -82.48, -0.77 -90.68, 4.12 -97.27 M-5.14 -74.05 C-2.63 -81.54, 1.15 -87.56, 4.12 -97.27" stroke="#1e1e1e" stroke-width="4" fill="none"></path></g></g><mask></mask><g stroke-linecap="round"><g transform="translate(665.4684555803492 719.0635734437003) rotate(0 1.5733062891656573 -60.33334011501745)"><path d="M-0.49 0.45 C0.15 -19.83, 3.87 -101.53, 4.3 -121.82 M1.46 -0.36 C1.99 -20.53, 3.46 -100.9, 3.95 -120.89" stroke="#1e1e1e" stroke-width="4" fill="none"></path></g><g transform="translate(665.4684555803492 719.0635734437003) rotate(0 1.5733062891656573 -60.33334011501745)"><path d="M12.01 -97.22 C10.03 -103.41, 4.61 -115.19, 3.95 -120.89 M12.01 -97.22 C10.46 -102.85, 7.19 -108.55, 3.95 -120.89" stroke="#1e1e1e" stroke-width="4" fill="none"></path></g><g transform="translate(665.4684555803492 719.0635734437003) rotate(0 1.5733062891656573 -60.33334011501745)"><path d="M-5.09 -97.58 C-1.24 -103.57, -0.83 -115.24, 3.95 -120.89 M-5.09 -97.58 C-2.41 -103.07, -1.45 -108.68, 3.95 -120.89" stroke="#1e1e1e" stroke-width="4" fill="none"></path></g></g><mask></mask><g stroke-linecap="round"><g transform="translate(800.9840049138147 813.7956968551787) rotate(0 60.49999999999966 -87.15023553502067)"><path d="M-0.01 -0.62 C20.42 -29.54, 101.38 -145.32, 121.73 -174.19 M-1.48 1.67 C18.94 -26.98, 100.6 -142.99, 121.16 -172.59" stroke="#1e1e1e" stroke-width="4" fill="none"></path></g><g transform="translate(800.9840049138147 813.7956968551787) rotate(0 60.49999999999966 -87.15023553502067)"><path d="M114.69 -148.44 C115.26 -152.72, 117.96 -157.58, 121.16 -172.59 M114.69 -148.44 C116.79 -155.99, 119.64 -164.16, 121.16 -172.59" stroke="#1e1e1e" stroke-width="4" fill="none"></path></g><g transform="translate(800.9840049138147 813.7956968551787) rotate(0 60.49999999999966 -87.15023553502067)"><path d="M100.68 -158.25 C104.38 -160.29, 110.26 -162.93, 121.16 -172.59 M100.68 -158.25 C107.52 -162.58, 115.13 -167.42, 121.16 -172.59" stroke="#1e1e1e" stroke-width="4" fill="none"></path></g></g><mask></mask><g stroke-linecap="round"><g transform="translate(626.4762737291094 872.1428934733074) rotate(0 0.5982460142016635 42.07142857142844)"><path d="M0.53 0.94 C0.65 14.77, 0.6 70.21, 0.86 84.06 M-0.65 0.38 C-0.73 14.93, -0.67 71.4, -0.26 85.56" stroke="#1e1e1e" stroke-width="4" fill="none"></path></g><g transform="translate(626.4762737291094 872.1428934733074) rotate(0 0.5982460142016635 42.07142857142844)"><path d="M-9.11 62.18 C-4.58 68.87, -3.51 78.22, -0.26 85.56 M-9.11 62.18 C-6.73 69.29, -3.39 76.71, -0.26 85.56" stroke="#1e1e1e" stroke-width="4" fill="none"></path></g><g transform="translate(626.4762737291094 872.1428934733074) rotate(0 0.5982460142016635 42.07142857142844)"><path d="M7.99 61.96 C7.19 68.8, 2.92 78.21, -0.26 85.56 M7.99 61.96 C5.37 69.04, 3.7 76.53, -0.26 85.56" stroke="#1e1e1e" stroke-width="4" fill="none"></path></g></g><mask></mask><g stroke-linecap="round"><g transform="translate(484.5712483723953 1019.6691001219049) rotate(0 -37.428536551339164 1.0318460838843748)"><path d="M0.24 -0.53 C-12.2 -0.26, -63.11 1.93, -75.81 2.48 M-1.09 1.81 C-13.06 1.63, -61.51 0.74, -73.6 0.57" stroke="#1e1e1e" stroke-width="4" fill="none"></path></g><g transform="translate(484.5712483723953 1019.6691001219049) rotate(0 -37.428536551339164 1.0318460838843748)"><path d="M-49.97 -7.59 C-55.58 -7.47, -58.82 -6.01, -73.6 0.57 M-49.97 -7.59 C-57.82 -5.01, -66.19 -2.09, -73.6 0.57" stroke="#1e1e1e" stroke-width="4" fill="none"></path></g><g transform="translate(484.5712483723953 1019.6691001219049) rotate(0 -37.428536551339164 1.0318460838843748)"><path d="M-50.25 9.51 C-55.94 6.15, -59.11 4.14, -73.6 0.57 M-50.25 9.51 C-58.06 5.95, -66.33 2.74, -73.6 0.57" stroke="#1e1e1e" stroke-width="4" fill="none"></path></g></g><mask></mask><g stroke-linecap="round" transform="translate(10 35.66670735677093) rotate(0 644.0000406901038 568.333333333333)"><path d="M32 0 C352.77 3.81, 674.12 4.08, 1256 0 M1256 0 C1278.98 -1.75, 1288.67 9.29, 1288 32 M1288 32 C1286.47 362.16, 1286.99 691.54, 1288 1104.67 M1288 1104.67 C1287.35 1126.87, 1277.95 1136.38, 1256 1136.67 M1256 1136.67 C839.74 1138.27, 424.51 1138.25, 32 1136.67 M32 1136.67 C10 1136.29, 1.07 1126.39, 0 1104.67 M0 1104.67 C1.08 707.46, -0.06 308.96, 0 32 M0 32 C-1.07 12.58, 11.45 -0.4, 32 0" stroke="#1e1e1e" stroke-width="1.5" fill="none" stroke-dasharray="8 9"></path></g><g stroke-linecap="round"><g transform="translate(1300.3332926432286 484.6902862500113) rotate(0 44.666798909505474 0.35704789250539193)"><path d="M0.04 0.15 C14.94 0.17, 74.4 0.2, 89.43 0.3 M-1.4 -0.81 C13.34 -0.65, 73.32 1.14, 88.53 1.62" stroke="#1e1e1e" stroke-width="4" fill="none"></path></g><g transform="translate(1300.3332926432286 484.6902862500113) rotate(0 44.666798909505474 0.35704789250539193)"><path d="M64.79 9.46 C72.22 7.24, 78.45 6.15, 88.53 1.62 M64.79 9.46 C71.18 6.37, 78.94 5.82, 88.53 1.62" stroke="#1e1e1e" stroke-width="4" fill="none"></path></g><g transform="translate(1300.3332926432286 484.6902862500113) rotate(0 44.666798909505474 0.35704789250539193)"><path d="M65.31 -7.63 C72.61 -4.68, 78.69 -0.6, 88.53 1.62 M65.31 -7.63 C71.52 -5.58, 79.13 -0.98, 88.53 1.62" stroke="#1e1e1e" stroke-width="4" fill="none"></path></g></g><mask></mask><g stroke-linecap="round" transform="translate(1438.9199237722303 76.33339436848956) rotate(0 122.80001831054688 62.00002034505209)"><path d="M31 0 C96.52 -0.12, 161.9 -0.18, 214.6 0 M31 0 C78.9 1.12, 126.03 1.09, 214.6 0 M214.6 0 C233.33 0.82, 244.91 8.78, 245.6 31 M214.6 0 C235.77 2.25, 243.66 8.58, 245.6 31 M245.6 31 C247.71 52.7, 244.27 71.64, 245.6 93 M245.6 31 C246.45 48.72, 246.6 67.02, 245.6 93 M245.6 93 C245.88 114.92, 236.57 122.32, 214.6 124 M245.6 93 C245.41 114.97, 235.36 126.11, 214.6 124 M214.6 124 C171.45 122.96, 131.38 125.41, 31 124 M214.6 124 C177.88 124.73, 140.39 125.91, 31 124 M31 124 C10.93 122.65, 1.05 114.15, 0 93 M31 124 C8.14 122.41, 1.16 114.19, 0 93 M0 93 C-0.96 71.5, -1.93 52.7, 0 31 M0 93 C0 70.16, -0.48 46.41, 0 31 M0 31 C-0.51 8.68, 9.52 -0.47, 31 0 M0 31 C-0.88 9.14, 10.07 1.87, 31 0" stroke="#1e1e1e" stroke-width="1" fill="none"></path></g><g stroke-linecap="round"><g transform="translate(1440.519960393324 123.53337605794269) rotate(0 121.60000610351562 -1.1999969482421875)"><path d="M-1.16 0.62 C39.37 0.08, 201.34 -2.25, 242 -2.88 M0.43 -0.09 C41.42 -0.5, 203.85 -1.24, 244.09 -1.59" stroke="#1e1e1e" stroke-width="1" fill="none"></path></g></g><mask></mask><g transform="translate(1462.1199359792615 89.1430159505208) rotate(0 42 9.600000000000001)"><text x="0" y="15.45" font-family="Cascadia, Segoe UI Emoji" font-size="16px" fill="#1e1e1e" text-anchor="start" style="white-space: pre;" direction="ltr" dominant-baseline="alphabetic">XmlParser</text></g><g transform="translate(1454.9199237722303 137.13338216145831) rotate(0 98 19.200000000000003)"><text x="0" y="15.45" font-family="Cascadia, Segoe UI Emoji" font-size="16px" fill="#1e1e1e" text-anchor="start" style="white-space: pre;" direction="ltr" dominant-baseline="alphabetic">Low-memory on-the-fly</text><text x="0" y="34.65" font-family="Cascadia, Segoe UI Emoji" font-size="16px" fill="#1e1e1e" text-anchor="start" style="white-space: pre;" direction="ltr" dominant-baseline="alphabetic">parser.</text></g><g transform="translate(81.1034124465217 10) rotate(0 82.10416412353516 12)"><text x="0" y="19.3125" font-family="Cascadia, Segoe UI Emoji" font-size="20px" fill="#1e1e1e" text-anchor="start" style="white-space: pre;" direction="ltr" dominant-baseline="alphabetic">Business logic</text></g><g stroke-linecap="round" transform="translate(1436.9417173776483 456.3334401448572) rotate(0 122.80001831054688 68.00008138020837)"><path d="M32 0 C84.47 0.58, 138.95 0.74, 213.6 0 M32 0 C103.34 -0.33, 175.77 -0.92, 213.6 0 M213.6 0 C235.86 0.33, 246.52 9.53, 245.6 32 M213.6 0 C233.34 2.06, 243.43 9.75, 245.6 32 M245.6 32 C244.68 47.49, 245.49 60.52, 245.6 104 M245.6 32 C246.21 53.66, 245.63 76.61, 245.6 104 M245.6 104 C244.07 127.07, 234.13 137.86, 213.6 136 M245.6 104 C245.22 123.67, 237.05 136.52, 213.6 136 M213.6 136 C165.79 138.55, 116.72 138.54, 32 136 M213.6 136 C141.89 135.89, 71.55 135.05, 32 136 M32 136 C10.99 137.25, -0.42 123.74, 0 104 M32 136 C12.48 135.42, -0.17 127.58, 0 104 M0 104 C1.7 80.38, -0.83 54.57, 0 32 M0 104 C1.45 85.13, -0.18 67.3, 0 32 M0 32 C-0.98 9.6, 11.92 -0.71, 32 0 M0 32 C1.62 9.39, 8.81 -2.1, 32 0" stroke="#1e1e1e" stroke-width="1" fill="none"></path></g><g stroke-linecap="round"><g transform="translate(1438.541753998742 503.53342183431033) rotate(0 121.60000610351562 -1.1999969482421875)"><path d="M0.57 0.03 C41.17 -0.09, 203.35 -0.88, 243.86 -1.27 M-0.59 -1 C39.89 -1.37, 202.65 -2.81, 243.26 -2.8" stroke="#1e1e1e" stroke-width="1" fill="none"></path></g></g><mask></mask><g transform="translate(1460.1417295846795 469.14306172688845) rotate(0 46.66666793823242 9.599999999999994)"><text x="0" y="15.45" font-family="Cascadia, Segoe UI Emoji" font-size="16px" fill="#1e1e1e" text-anchor="start" style="white-space: pre;" direction="ltr" dominant-baseline="alphabetic">Handlebars</text></g><g transform="translate(1452.9417173776483 517.1334279378259) rotate(0 112 28.80000000000001)"><text x="0" y="15.45" font-family="Cascadia, Segoe UI Emoji" font-size="16px" fill="#1e1e1e" text-anchor="start" style="white-space: pre;" direction="ltr" dominant-baseline="alphabetic">Connector to the Handle-</text><text x="0" y="34.65" font-family="Cascadia, Segoe UI Emoji" font-size="16px" fill="#1e1e1e" text-anchor="start" style="white-space: pre;" direction="ltr" dominant-baseline="alphabetic">bars library with a</text><text x="0" y="53.849999999999994" font-family="Cascadia, Segoe UI Emoji" font-size="16px" fill="#1e1e1e" text-anchor="start" style="white-space: pre;" direction="ltr" dominant-baseline="alphabetic">minimal interface.</text></g><g stroke-linecap="round" transform="translate(1764.6521591913129 496.33345031738287) rotate(0 122.80001831054699 57.333424886067746)"><path d="M28.67 0 C71.21 2.68, 109.69 1.11, 216.93 0 M28.67 0 C94.09 1.03, 158.63 1.78, 216.93 0 M216.93 0 C236.24 -1.04, 247.38 7.91, 245.6 28.67 M216.93 0 C237.09 -1.22, 246.62 11.41, 245.6 28.67 M245.6 28.67 C244.69 46.45, 246.46 66.03, 245.6 86 M245.6 28.67 C245.31 40.88, 246.26 53.74, 245.6 86 M245.6 86 C247.08 104.73, 237.37 113.97, 216.93 114.67 M245.6 86 C244.81 102.97, 236.35 115.98, 216.93 114.67 M216.93 114.67 C165.8 111.87, 116.07 112.32, 28.67 114.67 M216.93 114.67 C149.29 113.34, 80.67 112.98, 28.67 114.67 M28.67 114.67 C11.2 113.69, 0.67 104.86, 0 86 M28.67 114.67 C7.94 113.89, 0.07 105.77, 0 86 M0 86 C2.52 70.5, 2.13 56.76, 0 28.67 M0 86 C-0.13 65.11, 0.59 44.49, 0 28.67 M0 28.67 C-0.1 9.23, 10.3 1.13, 28.67 0 M0 28.67 C-2.08 7.32, 8.31 0.99, 28.67 0" stroke="#1e1e1e" stroke-width="1" fill="none"></path></g><g stroke-linecap="round"><g transform="translate(1766.2521958124066 543.5334320068359) rotate(0 121.60000610351551 -1.1999969482421875)"><path d="M0.74 -0.47 C41.39 -0.95, 202.53 -1.42, 242.99 -1.86 M-0.33 -1.77 C40.23 -2.68, 201.39 -3.63, 241.94 -3.7" stroke="#1e1e1e" stroke-width="1" fill="none"></path></g></g><mask></mask><g transform="translate(1787.8521713983441 509.1430718994141) rotate(0 32.66666793823231 9.599999999999994)"><text x="0" y="15.45" font-family="Cascadia, Segoe UI Emoji" font-size="16px" fill="#1e1e1e" text-anchor="start" style="white-space: pre;" direction="ltr" dominant-baseline="alphabetic">Console</text></g><g transform="translate(1780.6521591913129 557.1334381103516) rotate(0 83.99999999999989 19.19999999999999)"><text x="0" y="15.45" font-family="Cascadia, Segoe UI Emoji" font-size="16px" fill="#1e1e1e" text-anchor="start" style="white-space: pre;" direction="ltr" dominant-baseline="alphabetic">Executing external</text><text x="0" y="34.65" font-family="Cascadia, Segoe UI Emoji" font-size="16px" fill="#1e1e1e" text-anchor="start" style="white-space: pre;" direction="ltr" dominant-baseline="alphabetic">programs.</text></g><g stroke-linecap="round" transform="translate(1437.3189886183973 836.9999593098955) rotate(0 122.80001831054688 68.00008138020837)"><path d="M32 0 C89.44 0.85, 150.82 -1.18, 213.6 0 M32 0 C73.77 1.55, 114.04 1.33, 213.6 0 M213.6 0 C233.83 0.12, 245.55 11.13, 245.6 32 M213.6 0 C236.39 -0.9, 246.76 8.47, 245.6 32 M245.6 32 C247.49 61.71, 246.35 89.42, 245.6 104 M245.6 32 C246.54 46.34, 246.02 61.89, 245.6 104 M245.6 104 C245.35 127.28, 233.39 137.38, 213.6 136 M245.6 104 C245.72 125.14, 233.8 137.58, 213.6 136 M213.6 136 C151.18 136.95, 86.13 136.59, 32 136 M213.6 136 C162.56 135.99, 110.41 134.71, 32 136 M32 136 C8.74 136.28, -0.47 124.8, 0 104 M32 136 C12.2 134.94, -1.21 125.91, 0 104 M0 104 C-0.75 88.98, -0.12 73.46, 0 32 M0 104 C0.89 84.75, 0.57 63.61, 0 32 M0 32 C0.51 11.06, 9.4 1.6, 32 0 M0 32 C0.47 8.82, 9.73 0.61, 32 0" stroke="#1e1e1e" stroke-width="1" fill="none"></path></g><g stroke-linecap="round"><g transform="translate(1438.919025239491 884.1999409993487) rotate(0 121.60000610351562 -1.1999969482421875)"><path d="M0.1 0.33 C40.52 -0.05, 201.42 -2.71, 242.09 -3.28 M-1.3 -0.55 C39.51 -0.71, 203.36 -1.93, 244.22 -2.2" stroke="#1e1e1e" stroke-width="1" fill="none"></path></g></g><mask></mask><g transform="translate(1460.5190008254283 849.809580891927) rotate(0 28 9.600000000000023)"><text x="0" y="15.45" font-family="Cascadia, Segoe UI Emoji" font-size="16px" fill="#1e1e1e" text-anchor="start" style="white-space: pre;" direction="ltr" dominant-baseline="alphabetic">Config</text></g><g transform="translate(1453.3189886183973 897.7999471028643) rotate(0 93.33333587646484 28.80000000000001)"><text x="0" y="15.45" font-family="Cascadia, Segoe UI Emoji" font-size="16px" fill="#1e1e1e" text-anchor="start" style="white-space: pre;" direction="ltr" dominant-baseline="alphabetic">Reading application</text><text x="0" y="34.65" font-family="Cascadia, Segoe UI Emoji" font-size="16px" fill="#1e1e1e" text-anchor="start" style="white-space: pre;" direction="ltr" dominant-baseline="alphabetic">settings from an INI</text><text x="0" y="53.849999999999994" font-family="Cascadia, Segoe UI Emoji" font-size="16px" fill="#1e1e1e" text-anchor="start" style="white-space: pre;" direction="ltr" dominant-baseline="alphabetic">file.</text></g><g stroke-linecap="round" transform="translate(1436.652342296782 666.3332316080723) rotate(0 122.80001831054688 57.333424886067746)"><path d="M28.67 0 C67.53 -3.47, 105.7 -3.72, 216.93 0 M28.67 0 C81.76 -0.23, 134.32 -0.5, 216.93 0 M216.93 0 C237.19 -0.88, 245.74 10.99, 245.6 28.67 M216.93 0 C237.53 0.98, 246.92 7.88, 245.6 28.67 M245.6 28.67 C246.29 43.69, 243.36 53.69, 245.6 86 M245.6 28.67 C245.31 44.14, 245.65 59.26, 245.6 86 M245.6 86 C243.83 104.6, 234.71 115.73, 216.93 114.67 M245.6 86 C244.79 105.23, 238.12 114.41, 216.93 114.67 M216.93 114.67 C177.81 116.67, 140.7 115.06, 28.67 114.67 M216.93 114.67 C154.75 113.55, 89.83 112.66, 28.67 114.67 M28.67 114.67 C9.42 113.43, 1.25 103.49, 0 86 M28.67 114.67 C9.09 114.07, -1.21 107.39, 0 86 M0 86 C0.56 64.73, 1.19 42.53, 0 28.67 M0 86 C0.04 65.35, 0.43 44.01, 0 28.67 M0 28.67 C0.14 8.29, 10.14 -1.27, 28.67 0 M0 28.67 C-0.92 7.42, 9.18 0.43, 28.67 0" stroke="#1e1e1e" stroke-width="1" fill="none"></path></g><g stroke-linecap="round"><g transform="translate(1438.2523789178758 713.5332132975254) rotate(0 121.60000610351562 -1.1999969482421875)"><path d="M-1.01 0.56 C39.14 0.05, 201.38 -2.12, 242.04 -2.62 M0.66 -0.19 C41.06 -0.56, 203.91 -1.04, 244.14 -1.19" stroke="#1e1e1e" stroke-width="1" fill="none"></path></g></g><mask></mask><g transform="translate(1459.8523545038133 679.1428531901038) rotate(0 98 9.600000000000023)"><text x="0" y="15.45" font-family="Cascadia, Segoe UI Emoji" font-size="16px" fill="#1e1e1e" text-anchor="start" style="white-space: pre;" direction="ltr" dominant-baseline="alphabetic">RainbowLatinException</text></g><g transform="translate(1452.652342296782 727.1332194010411) rotate(0 102.66666412353516 19.19999999999999)"><text x="0" y="15.45" font-family="Cascadia, Segoe UI Emoji" font-size="16px" fill="#1e1e1e" text-anchor="start" style="white-space: pre;" direction="ltr" dominant-baseline="alphabetic">Exception for library-</text><text x="0" y="34.65" font-family="Cascadia, Segoe UI Emoji" font-size="16px" fill="#1e1e1e" text-anchor="start" style="white-space: pre;" direction="ltr" dominant-baseline="alphabetic">specific errors.</text></g><g stroke-linecap="round" transform="translate(1440.9414935820744 269.3333485921225) rotate(0 122.80001831054688 62.00002034505209)"><path d="M31 0 C73.04 0.38, 119.26 2.29, 214.6 0 M31 0 C88.3 -0.62, 146.38 -0.31, 214.6 0 M214.6 0 C234.2 -1.36, 246.47 11.5, 245.6 31 M214.6 0 C234.17 0.26, 243.99 12.63, 245.6 31 M245.6 31 C244.03 50.07, 247.44 66.43, 245.6 93 M245.6 31 C245.34 50.44, 245.11 71.44, 245.6 93 M245.6 93 C245.26 114.12, 237.11 122.04, 214.6 124 M245.6 93 C246.41 112.71, 235.72 125.4, 214.6 124 M214.6 124 C163.51 121.19, 110.97 122, 31 124 M214.6 124 C146.61 123.72, 80 124.64, 31 124 M31 124 C10.05 123.28, -1.69 114.91, 0 93 M31 124 C9.98 124.94, 1.76 113.81, 0 93 M0 93 C0.13 75.87, 1.99 57.38, 0 31 M0 93 C0.19 69.43, 1.31 46.72, 0 31 M0 31 C1.39 8.66, 10.78 -1.66, 31 0 M0 31 C1.83 12.18, 8.58 0.56, 31 0" stroke="#1e1e1e" stroke-width="1" fill="none"></path></g><g stroke-linecap="round"><g transform="translate(1442.5415302031681 316.5333302815756) rotate(0 121.60000610351562 -1.1999969482421875)"><path d="M-0.05 0.35 C40.72 0.15, 203.7 -1.85, 244.3 -2.24 M-1.53 -0.52 C39.2 -0.4, 203.18 -0.02, 243.93 -0.62" stroke="#1e1e1e" stroke-width="1" fill="none"></path></g></g><mask></mask><g transform="translate(1464.1415057891056 282.14297017415373) rotate(0 42 9.599999999999994)"><text x="0" y="15.45" font-family="Cascadia, Segoe UI Emoji" font-size="16px" fill="#1e1e1e" text-anchor="start" style="white-space: pre;" direction="ltr" dominant-baseline="alphabetic">CanonFile</text></g><g transform="translate(1456.9414935820744 323.46666971842455) rotate(0 107.33333587646484 28.799999999999983)"><text x="0" y="15.45" font-family="Cascadia, Segoe UI Emoji" font-size="16px" fill="#1e1e1e" text-anchor="start" style="white-space: pre;" direction="ltr" dominant-baseline="alphabetic">Encapsulates info about</text><text x="0" y="34.65" font-family="Cascadia, Segoe UI Emoji" font-size="16px" fill="#1e1e1e" text-anchor="start" style="white-space: pre;" direction="ltr" dominant-baseline="alphabetic">a file with canonical</text><text x="0" y="53.849999999999994" font-family="Cascadia, Segoe UI Emoji" font-size="16px" fill="#1e1e1e" text-anchor="start" style="white-space: pre;" direction="ltr" dominant-baseline="alphabetic">naming scheme.</text></g><g stroke-linecap="round"><g transform="translate(1561.1190272739957 203.33341471354174) rotate(0 1.33331298828125 32.000020345052064)"><path d="M-0.5 1.06 C-0.13 11.54, 1.81 53.25, 2.47 63.89 M1.44 0.58 C1.61 11.77, 1.14 54.96, 1.42 65.37" stroke="#1e1e1e" stroke-width="4" fill="none"></path></g><g transform="translate(1561.1190272739957 203.33341471354174) rotate(0 1.33331298828125 32.000020345052064)"><path d="M-7.25 41.92 C-2.5 49.17, -1.67 58.34, 1.42 65.37 M-7.25 41.92 C-3.31 50.75, -1.48 58.66, 1.42 65.37" stroke="#1e1e1e" stroke-width="4" fill="none"></path></g><g transform="translate(1561.1190272739957 203.33341471354174) rotate(0 1.33331298828125 32.000020345052064)"><path d="M9.85 41.83 C9.11 49.03, 4.44 58.24, 1.42 65.37 M9.85 41.83 C7.38 50.67, 2.79 58.61, 1.42 65.37" stroke="#1e1e1e" stroke-width="4" fill="none"></path></g></g><mask></mask><g stroke-linecap="round" transform="translate(1759.2511256168114 664.6664326985676) rotate(0 122.80001831054699 57.333424886067746)"><path d="M28.67 0 C94.22 0.69, 160.7 2.12, 216.93 0 M28.67 0 C89.44 -1.24, 152.82 -1.45, 216.93 0 M216.93 0 C234.95 1.75, 247 8.49, 245.6 28.67 M216.93 0 C238.13 2.09, 245.78 7.5, 245.6 28.67 M245.6 28.67 C245.86 47.56, 243.75 70.77, 245.6 86 M245.6 28.67 C245.57 42.92, 245.66 59.37, 245.6 86 M245.6 86 C244.14 103.93, 237.74 115.01, 216.93 114.67 M245.6 86 C246.79 105.37, 234.68 116.75, 216.93 114.67 M216.93 114.67 C172.99 113.22, 134.56 113.75, 28.67 114.67 M216.93 114.67 C176.46 113.98, 136.39 115.02, 28.67 114.67 M28.67 114.67 C9.66 114.23, -1.69 104.77, 0 86 M28.67 114.67 C8.47 116.93, 0.38 104.92, 0 86 M0 86 C0.47 65.23, 1.16 42.55, 0 28.67 M0 86 C0.96 72.23, 1.16 59.4, 0 28.67 M0 28.67 C1.82 9.18, 10.4 0.93, 28.67 0 M0 28.67 C1.54 8.37, 7.86 -0.46, 28.67 0" stroke="#1e1e1e" stroke-width="1" fill="none"></path></g><g stroke-linecap="round"><g transform="translate(1760.851162237905 711.8664143880208) rotate(0 121.60000610351551 -1.1999969482421875)"><path d="M-0.52 -0.85 C40.23 -1.08, 202.72 -1.99, 243.53 -2.07 M1.4 1.31 C42.12 0.77, 202.29 -3.28, 242.76 -4.02" stroke="#1e1e1e" stroke-width="1" fill="none"></path></g></g><mask></mask><g transform="translate(1782.4511378238426 677.4760542805991) rotate(0 41.999999999999886 9.600000000000023)"><text x="0" y="15.45" font-family="Cascadia, Segoe UI Emoji" font-size="16px" fill="#1e1e1e" text-anchor="start" style="white-space: pre;" direction="ltr" dominant-baseline="alphabetic">Scheduler</text></g><g transform="translate(1775.2511256168114 725.4664204915364) rotate(0 102.66666412353504 19.19999999999999)"><text x="0" y="15.45" font-family="Cascadia, Segoe UI Emoji" font-size="16px" fill="#1e1e1e" text-anchor="start" style="white-space: pre;" direction="ltr" dominant-baseline="alphabetic">Minimal interface for</text><text x="0" y="34.65" font-family="Cascadia, Segoe UI Emoji" font-size="16px" fill="#1e1e1e" text-anchor="start" style="white-space: pre;" direction="ltr" dominant-baseline="alphabetic">multi-threading tasks.</text></g><g stroke-linecap="round" transform="translate(1755.667977469308 824.3999125162759) rotate(0 122.80001831054699 76.00008138020837)"><path d="M32 0 C94.88 0.53, 155.94 1.97, 213.6 0 M32 0 C77.29 -1.8, 122.54 -1.57, 213.6 0 M213.6 0 C236 0.01, 244.05 10.08, 245.6 32 M213.6 0 C235.35 0.98, 244.94 10.46, 245.6 32 M245.6 32 C243.38 55.23, 246.95 80.63, 245.6 120 M245.6 32 C245.63 64.98, 246.19 99.26, 245.6 120 M245.6 120 C244.11 141.41, 236.17 153.83, 213.6 152 M245.6 120 C246.66 139.53, 233.57 150.54, 213.6 152 M213.6 152 C169.84 154.07, 124.86 154.34, 32 152 M213.6 152 C175.81 150.02, 135.38 149.91, 32 152 M32 152 C9.97 153.01, -0.97 141.83, 0 120 M32 152 C11.94 151.25, 0.71 143.12, 0 120 M0 120 C-1.14 90.59, -1.33 58.31, 0 32 M0 120 C0.62 99.78, 0.17 80.27, 0 32 M0 32 C0.62 8.89, 9.58 1.13, 32 0 M0 32 C1.12 12.45, 9.4 -1.81, 32 0" stroke="#1e1e1e" stroke-width="1" fill="none"></path></g><g stroke-linecap="round"><g transform="translate(1757.2680140904017 871.599894205729) rotate(0 121.60000610351551 -1.1999969482421875)"><path d="M-0.51 -0.44 C40.23 -0.99, 202.85 -2.8, 243.55 -2.98 M1.42 -1.72 C42.12 -2.14, 202.49 -1.46, 242.79 -1.74" stroke="#1e1e1e" stroke-width="1" fill="none"></path></g></g><mask></mask><g transform="translate(1778.8679896763392 837.2095340983071) rotate(0 74.66666412353504 9.600000000000023)"><text x="0" y="15.45" font-family="Cascadia, Segoe UI Emoji" font-size="16px" fill="#1e1e1e" text-anchor="start" style="white-space: pre;" direction="ltr" dominant-baseline="alphabetic">DirectoryScanner</text></g><g transform="translate(1771.667977469308 885.1999003092446) rotate(0 107.33333587646473 38.39999999999998)"><text x="0" y="15.45" font-family="Cascadia, Segoe UI Emoji" font-size="16px" fill="#1e1e1e" text-anchor="start" style="white-space: pre;" direction="ltr" dominant-baseline="alphabetic">Finds files with the</text><text x="0" y="34.65" font-family="Cascadia, Segoe UI Emoji" font-size="16px" fill="#1e1e1e" text-anchor="start" style="white-space: pre;" direction="ltr" dominant-baseline="alphabetic">canonical naming scheme</text><text x="0" y="53.849999999999994" font-family="Cascadia, Segoe UI Emoji" font-size="16px" fill="#1e1e1e" text-anchor="start" style="white-space: pre;" direction="ltr" dominant-baseline="alphabetic">and parses the file</text><text x="0" y="73.05" font-family="Cascadia, Segoe UI Emoji" font-size="16px" fill="#1e1e1e" text-anchor="start" style="white-space: pre;" direction="ltr" dominant-baseline="alphabetic">names.</text></g><g stroke-linecap="round" transform="translate(1767.40755825951 268.39991251627606) rotate(0 122.80001831054699 87.50008138020837)"><path d="M32 0 C102.16 0.55, 175.5 2.31, 213.6 0 M32 0 C73.1 0.4, 113.81 1.17, 213.6 0 M213.6 0 C236.91 -0.94, 245.33 10.95, 245.6 32 M213.6 0 C234.43 -0.43, 243.45 11, 245.6 32 M245.6 32 C247.38 62.97, 246.39 90.13, 245.6 143 M245.6 32 C245.09 69, 245.8 108.84, 245.6 143 M245.6 143 C244.18 164.21, 235.18 176.07, 213.6 175 M245.6 143 C246.1 163.4, 236.78 177.04, 213.6 175 M213.6 175 C162.32 176.63, 110.08 174.04, 32 175 M213.6 175 C169.94 172.96, 124.53 173.82, 32 175 M32 175 C9.43 175.09, 1.56 165.65, 0 143 M32 175 C12.4 175.92, 1.09 165.91, 0 143 M0 143 C-2.25 111.16, -1.96 77.29, 0 32 M0 143 C-0.31 115.33, 0.7 88.8, 0 32 M0 32 C0.49 11.08, 11.79 1.17, 32 0 M0 32 C0.48 8.78, 11.4 -1.09, 32 0" stroke="#1e1e1e" stroke-width="1" fill="none"></path></g><g stroke-linecap="round"><g transform="translate(1769.0075948806038 315.5998942057292) rotate(0 121.60000610351551 -1.1999969482421875)"><path d="M0.06 0.48 C40.83 0.05, 203.77 -2.67, 244.32 -3.3 M-1.36 -0.32 C39.37 -0.56, 203.29 -1.88, 243.96 -2.24" stroke="#1e1e1e" stroke-width="1" fill="none"></path></g></g><mask></mask><g transform="translate(1790.6075704665413 281.2095340983073) rotate(0 37.333332061767464 9.599999999999994)"><text x="0" y="15.45" font-family="Cascadia, Segoe UI Emoji" font-size="16px" fill="#1e1e1e" text-anchor="start" style="white-space: pre;" direction="ltr" dominant-baseline="alphabetic">BookWorm</text></g><g transform="translate(1783.40755825951 329.1999003092448) rotate(0 107.33333587646473 48)"><text x="0" y="15.45" font-family="Cascadia, Segoe UI Emoji" font-size="16px" fill="#1e1e1e" text-anchor="start" style="white-space: pre;" direction="ltr" dominant-baseline="alphabetic">Keeps track of the doc-</text><text x="0" y="34.65" font-family="Cascadia, Segoe UI Emoji" font-size="16px" fill="#1e1e1e" text-anchor="start" style="white-space: pre;" direction="ltr" dominant-baseline="alphabetic">ument content and sec-</text><text x="0" y="53.849999999999994" font-family="Cascadia, Segoe UI Emoji" font-size="16px" fill="#1e1e1e" text-anchor="start" style="white-space: pre;" direction="ltr" dominant-baseline="alphabetic">tions. Provides statis-</text><text x="0" y="73.05" font-family="Cascadia, Segoe UI Emoji" font-size="16px" fill="#1e1e1e" text-anchor="start" style="white-space: pre;" direction="ltr" dominant-baseline="alphabetic">tics and indexed access</text><text x="0" y="92.25" font-family="Cascadia, Segoe UI Emoji" font-size="16px" fill="#1e1e1e" text-anchor="start" style="white-space: pre;" direction="ltr" dominant-baseline="alphabetic">to the content.</text></g><g stroke-linecap="round" transform="translate(1766.3634169015727 83.06664021809902) rotate(0 127.80001831054699 62.00002034505211)"><path d="M31 0 C106.99 0.03, 181.04 -2.97, 224.6 0 M31 0 C71.69 1.21, 110.75 0.59, 224.6 0 M224.6 0 C243.55 -0.71, 255.33 10.38, 255.6 31 M224.6 0 C246.96 -0.42, 254.88 8.83, 255.6 31 M255.6 31 C255.06 54.36, 255.67 79.06, 255.6 93 M255.6 31 C255.05 51.74, 255.28 70.88, 255.6 93 M255.6 93 C255.01 115.56, 247.06 124.78, 224.6 124 M255.6 93 C255.1 112.35, 246.96 122.92, 224.6 124 M224.6 124 C158.35 126.89, 94.08 126.12, 31 124 M224.6 124 C185 124.6, 145.08 125.48, 31 124 M31 124 C8.98 125.35, -1.18 113.87, 0 93 M31 124 C9.59 124.53, 2.23 113.97, 0 93 M0 93 C-0.27 78.65, -1.34 61.86, 0 31 M0 93 C1 76.46, 1.1 61.8, 0 31 M0 31 C-1.21 8.41, 9.98 0.6, 31 0 M0 31 C-1.83 11.36, 10.04 -0.85, 31 0" stroke="#1e1e1e" stroke-width="1" fill="none"></path></g><g stroke-linecap="round"><g transform="translate(1767.9634535226664 130.26662190755215) rotate(0 125.76667277018203 -1.1999969482421875)"><path d="M1.11 -1.08 C42.73 -1.68, 209.27 -3.2, 250.85 -3.51 M0.24 0.96 C42.15 0.47, 211.07 -2.08, 253.2 -2.56" stroke="#1e1e1e" stroke-width="1" fill="none"></path></g></g><mask></mask><g transform="translate(1789.563429108604 95.87626180013027) rotate(0 74.66666412353504 9.600000000000001)"><text x="0" y="15.45" font-family="Cascadia, Segoe UI Emoji" font-size="16px" fill="#1e1e1e" text-anchor="start" style="white-space: pre;" direction="ltr" dominant-baseline="alphabetic">XmlParserFactory</text></g><g transform="translate(1782.3634169015727 143.86662801106777) rotate(0 111.99999999999989 19.200000000000003)"><text x="0" y="15.45" font-family="Cascadia, Segoe UI Emoji" font-size="16px" fill="#1e1e1e" text-anchor="start" style="white-space: pre;" direction="ltr" dominant-baseline="alphabetic">Interface for dependency</text><text x="0" y="34.65" font-family="Cascadia, Segoe UI Emoji" font-size="16px" fill="#1e1e1e" text-anchor="start" style="white-space: pre;" direction="ltr" dominant-baseline="alphabetic">injection.</text></g><g stroke-linecap="round"><g transform="translate(1765.874243236723 141.73332722981777) rotate(0 -39.999999999999886 -1.6666666666666572)"><path d="M-0.63 -0.19 C-13.78 -0.63, -66.79 -1.66, -80.02 -2.21 M1.25 -1.33 C-11.97 -2.11, -67.31 -3.59, -80.98 -3.74" stroke="#1e1e1e" stroke-width="2" fill="none"></path></g><g transform="translate(1765.874243236723 141.73332722981777) rotate(0 -39.999999999999886 -1.6666666666666572)"><path d="M-57.31 -11.8 C-62.52 -10.28, -65.26 -8.54, -80.98 -3.74 M-57.31 -11.8 C-63.45 -10.15, -70.9 -6.53, -80.98 -3.74" stroke="#1e1e1e" stroke-width="2" fill="none"></path></g><g transform="translate(1765.874243236723 141.73332722981777) rotate(0 -39.999999999999886 -1.6666666666666572)"><path d="M-57.66 5.29 C-62.86 3.26, -65.53 1.44, -80.98 -3.74 M-57.66 5.29 C-63.81 2.04, -71.15 0.74, -80.98 -3.74" stroke="#1e1e1e" stroke-width="2" fill="none"></path></g></g><mask></mask></svg>